<svg height='100px' width='100px'  fill="#333333" xmlns="http://www.w3.org/2000/svg" xmlns:xlink="http://www.w3.org/1999/xlink" version="1.1" x="0px" y="0px" viewBox="0 0 500 500" style="enable-background:new 0 0 500 500;" xml:space="preserve"><g><path d="M275,299.9c-0.8-0.6-1.9-1-3.1-0.9c0,0,0,0-0.1,0l-0.9,0c-1-0.3-2.4-1.5-3.6-2.5c-1.7-1.5-3.5-3.1-6-3.9   c-3.2-1.1-7-0.8-11.4,0.7c-4.3-1.5-8.2-1.7-11.4-0.7c-0.9,0.3-1.7,0.7-2.6,1.3c0,0,0,0,0,0c-0.5,0.3-0.9,0.6-1.4,1l-0.1,0.1   c-0.2,0.2-0.4,0.3-0.6,0.5l-0.1,0.1c-0.2,0.1-0.3,0.3-0.5,0.4l-0.7,0.6c-0.7,0.6-1.3,1.1-1.9,1.6l0,0l-0.7,0.5c0,0-0.1,0.1-0.1,0.1   l-0.1,0c-0.1,0.1-0.2,0.1-0.4,0.2c0,0,0,0,0,0c0,0-0.1,0-0.1,0.1c0,0,0,0,0,0c0,0,0,0,0,0c0,0-0.1,0-0.1,0l-0.1,0l-0.7,0v0   c-0.6,0-1.3,0.1-1.9,0.3c-1.2,0.4-2.1,1.2-2.5,2.1c0,0,0,0.1,0,0.1c0,0,0,0,0,0.1c-0.4,1-0.2,2.1,0.6,3c0.5,0.6,1.2,1.1,2,1.3   c0.1,0,0.2,0.1,0.2,0.1c0,0,0,0,0,0l0.1,0.1c0,0,0,0,0,0l0.5,0.4c0,0,0,0,0,0c0,0,0.1,0.1,0.1,0.1c0,0,0,0,0,0c0,0,0,0,0,0   c0,0,0.1,0.1,0.1,0.1c0,0,0,0,0,0c0.2,0.2,0.3,0.3,0.5,0.5l0.1,0.1c0.2,0.2,0.4,0.5,0.6,0.8c0,0,0,0,0,0.1c0.1,0.2,0.3,0.4,0.4,0.5   c0.1,0.2,0.2,0.3,0.4,0.5c0.2,0.2,0.3,0.5,0.5,0.7l0.1,0.2c0.1,0.2,0.2,0.3,0.4,0.5l0.2,0.2c0.1,0.2,0.3,0.3,0.4,0.5c0,0,0,0,0,0   l0.1,0.1c0.2,0.2,0.4,0.4,0.6,0.6l0,0c0.2,0.2,0.3,0.4,0.5,0.5l0.1,0.1c0.2,0.2,0.3,0.3,0.5,0.5l0.1,0.1c0.4,0.4,0.9,0.7,1.3,1.1   c0,0,0,0,0,0c0.2,0.2,0.4,0.3,0.6,0.5l0.1,0.1c0.2,0.1,0.4,0.3,0.7,0.4c0,0,0,0,0.1,0c0.5,0.3,1,0.6,1.6,0.9c0,0,0,0,0,0   c0.3,0.1,0.5,0.2,0.8,0.4c0,0,0,0,0,0c0.8,0.4,1.7,0.7,2.6,0.9c0,0,0,0,0,0c2.6,0.7,5.5,1.1,9.1,1.1c10,0,15.9-2.8,20.5-9.5   c1.5-2.2,2.5-3,3-3.3c0.5-0.1,0.9-0.3,1.3-0.6c1-0.6,1.7-1.6,1.7-2.7C276.5,301.6,276,300.6,275,299.9z M226,305.8   c-0.1,0-0.2-0.1-0.2-0.1C225.9,305.7,226,305.7,226,305.8L226,305.8z"></path><path d="M225.4,246.9c-3.9-3.9-9.2-6.1-14.7-6.1s-10.8,2.2-14.7,6.1c-2.9,2.9-2.9,7.7,0,10.6c2.9,2.9,7.7,2.9,10.6,0   c2.3-2.3,6-2.3,8.3,0c1.5,1.5,3.4,2.2,5.3,2.2s3.8-0.7,5.3-2.2C228.3,254.6,228.3,249.8,225.4,246.9z"></path><path d="M424.5,243.2C410.4,106.6,344.8,66.6,306.9,54.9c-25.9-8-53.9-8-80.9,0.2c-25.3,7.6-47.8,21.9-63.4,40.3   c-7.7,9.1-10.3,21.2-7.2,32.4c-12.8,18.6-20.3,41.1-20.3,65.3v14.1c-23,1.8-41.2,21.1-41.2,44.6c0,24.7,20.1,44.7,44.7,44.7h4.7   c7.2,18.1,19,34,33.8,46.3l-27.9,18.8c-16.7,11.3-26.7,30-26.7,50.2v0.8c0,28.1,19.1,52.3,46.3,58.9c26.2,6.3,53.2,9.5,80.2,9.5   c25.6,0,51.2-2.9,76.1-8.6l5.5-1.3c27.7-6.3,47-30.6,47-59c0-20.4-10.2-39.3-27.3-50.6v0l-27.9-18.4c2.9-2.3,5.6-4.8,8.2-7.4   c3.8,9.1,11.9,15.7,22.3,17.6c2,0.4,3.9,0.5,5.8,0.5c11.3,0,21.3-6.2,26.5-16.7c11.2-22.6,17.5-46.9,19-72.3   c0.8-2.7,1.4-5.5,1.7-8.3l8.3,0.2c2.9,0.1,5.6-1,7.4-3C424,251.4,425,247.6,424.5,243.2z M135.1,254.1v22.2   c-12-1.7-21.2-12-21.2-24.5s9.3-22.8,21.2-24.5V254.1z M280.8,343.8c-0.3,0.1-0.5,0.2-0.8,0.3c-0.5,0.2-1.1,0.4-1.6,0.5   c-0.7,0.2-1.4,0.4-2.1,0.6c-0.4,0.1-0.8,0.2-1.2,0.3c-0.7,0.2-1.3,0.4-2,0.5c-0.3,0.1-0.6,0.2-0.9,0.2c-0.8,0.2-1.6,0.4-2.4,0.5   c-0.2,0-0.3,0.1-0.5,0.1c-1,0.2-2,0.4-3,0.6c-0.1,0-0.3,0-0.4,0.1c-0.9,0.1-1.7,0.3-2.6,0.4c-0.2,0-0.4,0.1-0.6,0.1   c-2,0.3-4,0.5-6,0.6c-0.2,0-0.5,0-0.7,0c-0.8,0-1.6,0.1-2.3,0.1c-0.3,0-0.5,0-0.8,0c-1,0-2,0.1-3,0.1c-1,0-2,0-3-0.1   c-0.3,0-0.5,0-0.8,0c-0.8,0-1.6-0.1-2.4-0.1c-0.2,0-0.4,0-0.7,0c-1-0.1-2-0.2-3-0.3c-0.1,0-0.2,0-0.2,0c-0.9-0.1-1.9-0.2-2.8-0.3   c-0.2,0-0.4-0.1-0.6-0.1c-0.9-0.1-1.8-0.3-2.7-0.4c-0.1,0-0.2,0-0.3,0c-1-0.2-2-0.4-3-0.6c-0.2,0-0.5-0.1-0.7-0.1   c-0.7-0.2-1.5-0.3-2.2-0.5c-0.3-0.1-0.6-0.1-0.9-0.2c-0.9-0.2-1.7-0.4-2.5-0.7c-0.4-0.1-0.8-0.2-1.2-0.4c-0.5-0.2-1-0.3-1.5-0.5   c-0.5-0.2-1-0.3-1.5-0.5c-0.3-0.1-0.6-0.2-0.9-0.3c-37.2-12.9-63.9-48.2-63.9-89.7v-37v-24c0-15.1,3.5-29.4,9.8-42.2   c30.3,64.7,81.4,116.7,136.8,138.4c10.8,4.2,19.1,12.5,23.4,22.6C313.9,326.6,298.5,337.8,280.8,343.8z M384.7,185   c-13.9-60.8-44.2-76.6-44.5-76.7c-2.5-1.2-3.5-4.2-2.2-6.7c1.2-2.5,4.2-3.5,6.7-2.2c1.4,0.7,34.8,18.1,49.7,83.4   c0.6,2.7-1.1,5.4-3.8,6c-0.4,0.1-0.7,0.1-1.1,0.1C387.3,188.9,385.3,187.3,384.7,185z M395.6,224.5c-0.2,0-0.3,0-0.5,0   c-2.6,0-4.7-2-5-4.6c-0.5-6-1.3-11.9-2.1-17.6c-0.4-2.7,1.5-5.3,4.2-5.7c2.7-0.4,5.3,1.5,5.7,4.2c0.9,5.9,1.6,12,2.2,18.2   C400.4,221.8,398.3,224.3,395.6,224.5z"></path></g></svg>