<svg height='100px' width='100px'  fill="#333333" xmlns="http://www.w3.org/2000/svg" xmlns:xlink="http://www.w3.org/1999/xlink" version="1.1" x="0px" y="0px" viewBox="0 0 500 500" style="enable-background:new 0 0 500 500;" xml:space="preserve"><g><path d="M275,309.4c-0.8-0.6-1.9-1-3.1-0.9c0,0,0,0-0.1,0l-0.9,0c-1-0.3-2.4-1.5-3.6-2.5c-1.7-1.5-3.5-3.1-6-3.9   c-3.2-1.1-7-0.8-11.4,0.7c-4.3-1.5-8.2-1.7-11.4-0.7c-0.9,0.3-1.7,0.7-2.6,1.3c0,0,0,0,0,0c-0.5,0.3-0.9,0.6-1.4,1l-0.1,0.1   c-0.2,0.2-0.4,0.3-0.6,0.5l-0.1,0.1c-0.2,0.1-0.3,0.3-0.5,0.4l-0.7,0.6c-0.7,0.6-1.3,1.1-1.9,1.6l0,0l-0.7,0.5c0,0-0.1,0.1-0.1,0.1   l-0.1,0c-0.1,0.1-0.2,0.1-0.4,0.2c0,0,0,0,0,0c0,0-0.1,0-0.1,0.1c0,0,0,0,0,0c0,0,0,0,0,0c0,0-0.1,0-0.1,0l-0.1,0l-0.7,0v0   c-0.6,0-1.3,0.1-1.9,0.3c-1.2,0.4-2.1,1.2-2.5,2.1c0,0,0,0.1,0,0.1c0,0,0,0,0,0.1c-0.4,1-0.2,2.1,0.6,3c0.5,0.6,1.2,1.1,2,1.3   c0.1,0,0.2,0.1,0.2,0.1c0,0,0,0,0,0l0.1,0.1c0,0,0,0,0,0l0.5,0.4c0,0,0,0,0,0c0,0,0.1,0.1,0.1,0.1c0,0,0,0,0,0c0,0,0,0,0,0   c0,0,0.1,0.1,0.1,0.1c0,0,0,0,0,0c0.2,0.2,0.3,0.3,0.5,0.5l0.1,0.1c0.2,0.2,0.4,0.5,0.6,0.8c0,0,0,0,0,0.1c0.1,0.2,0.3,0.4,0.4,0.5   c0.1,0.2,0.2,0.3,0.4,0.5c0.2,0.2,0.3,0.5,0.5,0.7l0.1,0.2c0.1,0.2,0.2,0.3,0.4,0.5l0.2,0.2c0.1,0.2,0.3,0.3,0.4,0.5c0,0,0,0,0,0   l0.1,0.1c0.2,0.2,0.4,0.4,0.6,0.6l0,0c0.2,0.2,0.3,0.4,0.5,0.5l0.1,0.1c0.2,0.2,0.3,0.3,0.5,0.5l0.1,0.1c0.4,0.4,0.9,0.7,1.3,1.1   c0,0,0,0,0,0c0.2,0.2,0.4,0.3,0.6,0.5l0.1,0.1c0.2,0.1,0.4,0.3,0.7,0.4c0,0,0,0,0.1,0c0.5,0.3,1,0.6,1.6,0.9c0,0,0,0,0,0   c0.3,0.1,0.5,0.2,0.8,0.4c0,0,0,0,0,0c0.8,0.4,1.7,0.7,2.6,0.9c0,0,0,0,0,0c2.6,0.7,5.5,1.1,9.1,1.1c10,0,15.9-2.8,20.5-9.5   c1.5-2.2,2.5-3,3-3.3c0.5-0.1,0.9-0.3,1.3-0.6c1-0.6,1.7-1.6,1.7-2.7C276.5,311.1,276,310.1,275,309.4z M226,315.3   c-0.1,0-0.2-0.1-0.2-0.1C225.9,315.2,226,315.2,226,315.3L226,315.3z"></path><circle cx="208.7" cy="254.4" r="11.9"></circle><circle cx="291.8" cy="254.4" r="11.9"></circle><path d="M356.8,296.5h4.7c24.7,0,44.7-20.1,44.7-44.7c0-19.1-12.1-35.5-29.1-41.9c2.2-8.2,4.4-16.3,6.2-24.2   c1.6,5.7,3.1,11.6,4.6,17.8c0.3,1.1,1.3,1.9,2.4,1.9c0.1,0,0.2,0,0.3,0c1.3-0.1,2.2-1.2,2.2-2.5c0.1-12.5-0.1-26-1.5-39.3   c1.9,3.9,3.8,7.8,5.7,12c0.4,0.9,1.3,1.4,2.3,1.4c0.2,0,0.5,0,0.7-0.1c1.2-0.4,1.9-1.5,1.8-2.7c-4.5-31.6-10.5-61.4-33.3-79.7   c9.5,0.3,19.5,1.1,30.2,2.2c1.3,0.1,2.4-0.7,2.7-1.9c0.3-1.2-0.4-2.5-1.6-2.9c-18.9-6.9-40.6-13.8-61.4-16   c-7-13.7-15.5-26.8-23.8-38.6c-0.7-1-2.1-1.4-3.2-0.8c-1.1,0.6-1.6,1.9-1.2,3.1c2.2,5.8,4.3,11.4,6.1,16.8   c-4.6-3.3-9.9-6.1-15.9-8.3c-12.8-4.6-28.7-6.6-45.7-5.7c-47.3-1.4-92.5,12.6-138,42.7c-1.1,0.7-1.4,2.1-0.8,3.2   c0.4,0.9,1.3,1.4,2.2,1.4c0.3,0,0.6-0.1,0.9-0.2c10.4-3.8,20.3-7.2,30-10.2c-23.8,15.9-41.6,45.9-55.1,72c-0.6,1.1-0.2,2.5,0.8,3.2   c0.4,0.3,0.9,0.4,1.4,0.4c0.7,0,1.4-0.3,1.9-0.9c8.4-9.6,16.6-18.3,24.6-25.9c-9.3,24-14.2,50.5-14.8,80.1c0,1.3,0.9,2.4,2.2,2.5   c0.1,0,0.2,0,0.3,0c1.1,0,2.1-0.8,2.4-1.9c2.7-10.5,5.6-20.3,8.6-29.6c1.5,9.1,3.9,18.6,7.2,28.7c-19.8,4.6-34.6,22.4-34.6,43.5   c0,24.7,20.1,44.7,44.7,44.7h4.7c7.2,18.1,19,34,33.8,46.3l-27.9,18.8c-16.7,11.3-26.7,30-26.7,50.2v0.8   c0,28.1,19.1,52.3,46.3,58.9c26.2,6.3,53.2,9.5,80.2,9.5c25.6,0,51.2-2.9,76.1-8.6l5.5-1.3c27.7-6.3,47-30.6,47-59   c0-20.4-10.2-39.3-27.3-50.6v0l-27.9-18.4C337.5,330.9,349.4,314.9,356.8,296.5z M364.9,254.1v-26.7c12,1.7,21.2,12,21.2,24.5   s-9.3,22.8-21.2,24.5V254.1z M135.1,254.1v22.2c-12-1.7-21.2-12-21.2-24.5s9.3-22.8,21.2-24.5V254.1z M341.4,246.4   c0,10.3-4.1,19.8-11.5,26.9c-7.4,7.1-17.1,10.8-27.4,10.4c-19.3-0.7-35.1-16.4-35.9-35.8c0-0.6,0-1.1,0-1.7v0c0-6.6,5.5-12,12.3-12   h50.3c6.7,0,12.2,5.4,12.3,11.9V246.4z M171.8,87.3c19.5-15.4,39.2-20.1,40-20.3c2.7-0.6,5.4,1.1,6,3.7c0.6,2.7-1,5.4-3.7,6   c-0.2,0.1-18.4,4.5-36.1,18.4c-0.9,0.7-2,1.1-3.1,1.1c-1.5,0-2.9-0.7-3.9-1.9C169.3,92.2,169.7,89,171.8,87.3z M149.3,121.7   c-2.4-1.4-3.2-4.5-1.8-6.8c2.7-4.6,5.8-9,9.3-13.1c1.8-2.1,4.9-2.4,7-0.6c2.1,1.8,2.4,4.9,0.6,7c-3.1,3.7-5.9,7.6-8.3,11.7   c-0.9,1.6-2.6,2.5-4.3,2.5C150.9,122.4,150.1,122.2,149.3,121.7z M155.1,217.1v-3.6c4.1,0.4,8.3,0.5,12.5,0.5h7.9   c33.1,0,64.3-10.8,90.2-31.2c9.9-7.8,23.9-6.6,32.6,2.7c12.6,13.5,28.7,22.7,46.7,26.5v5.1v7.1c-4.5-3.1-9.9-5-15.7-5h-50.3   c-10.2,0-19.1,5.6-23.7,13.8c-3.3-1.1-6.9-1.1-10.3,0c-4.7-8.2-13.6-13.8-23.8-13.8h-50.3c-5.9,0-11.3,1.9-15.7,5V217.1z    M158.6,246.3C158.6,246.3,158.6,246.3,158.6,246.3c0-6.6,5.5-12,12.3-12h50.3c6.7,0,12.2,5.4,12.3,11.9v0.2   c0,10.3-4.1,19.8-11.5,26.9c-7.4,7.1-17.1,10.8-27.4,10.4c-19.3-0.7-35.1-16.4-35.9-35.8C158.6,247.4,158.6,246.8,158.6,246.3z    M280.8,343.8c-0.3,0.1-0.5,0.2-0.8,0.3c-0.5,0.2-1.1,0.4-1.6,0.5c-0.7,0.2-1.4,0.4-2.1,0.6c-0.4,0.1-0.8,0.2-1.2,0.3   c-0.7,0.2-1.3,0.4-2,0.5c-0.3,0.1-0.6,0.2-0.9,0.2c-0.8,0.2-1.6,0.4-2.4,0.5c-0.2,0-0.3,0.1-0.5,0.1c-1,0.2-2,0.4-3,0.6   c-0.1,0-0.3,0-0.4,0.1c-0.9,0.1-1.7,0.3-2.6,0.4c-0.2,0-0.4,0.1-0.6,0.1c-2,0.3-4,0.5-6,0.6c-0.2,0-0.5,0-0.7,0   c-0.8,0-1.6,0.1-2.3,0.1c-0.3,0-0.5,0-0.8,0c-1,0-2,0.1-3,0.1c-1,0-2,0-3-0.1c-0.3,0-0.5,0-0.8,0c-0.8,0-1.6-0.1-2.4-0.1   c-0.2,0-0.4,0-0.7,0c-1-0.1-2-0.2-3-0.3c-0.1,0-0.2,0-0.2,0c-0.9-0.1-1.9-0.2-2.8-0.3c-0.2,0-0.4-0.1-0.6-0.1   c-0.9-0.1-1.8-0.3-2.7-0.4c-0.1,0-0.2,0-0.3,0c-1-0.2-2-0.4-3-0.6c-0.2,0-0.5-0.1-0.7-0.1c-0.7-0.2-1.5-0.3-2.2-0.5   c-0.3-0.1-0.6-0.1-0.9-0.2c-0.9-0.2-1.7-0.4-2.5-0.7c-0.4-0.1-0.8-0.2-1.2-0.4c-0.5-0.2-1-0.3-1.5-0.5c-0.5-0.2-1-0.3-1.5-0.5   c-0.3-0.1-0.6-0.2-0.9-0.3c-27.7-9.6-49.5-31.6-58.9-59.3c9,8.5,20.9,13.8,33.9,14.3c0.7,0,1.3,0,2,0c13.6,0,26.5-5.2,36.3-14.7   c9.9-9.6,15.6-22.3,16-36c0.1-0.1,0.3-0.2,0.4-0.4c0.7-0.7,1.8-0.7,2.5,0c0.1,0.1,0.3,0.2,0.4,0.3c0,0.2,0,0.4,0,0.5   c1.1,27.1,23.3,49.1,50.4,50.1c0.7,0,1.3,0,2,0c13.4,0,26-5,35.8-14.2C330.4,312.3,308.5,334.3,280.8,343.8z"></path></g></svg>