<svg height='100px' width='100px'  fill="#333333" xmlns="http://www.w3.org/2000/svg" xmlns:xlink="http://www.w3.org/1999/xlink" version="1.1" x="0px" y="0px" viewBox="0 0 500 500" style="enable-background:new 0 0 500 500;" xml:space="preserve"><g><path d="M254.7,253.9c-1.3,1.3-2.9,1.9-4.7,1.9s-3.4-0.7-4.7-1.9c-2.9-2.9-7.7-2.9-10.6,0c-2.9,2.9-2.9,7.7,0,10.6   c4.1,4.1,9.5,6.3,15.3,6.3s11.2-2.3,15.3-6.3c2.9-2.9,2.9-7.7,0-10.6C262.4,251,257.6,251,254.7,253.9z"></path><path d="M350.3,363.6l-5.4-3.6c-10.8-7.1-24.2-9.3-36.7-6.1c-12.5,3.2-23.2,11.6-29.2,23l-2,3.8c-5.4,10.2-15.5,16.3-27.1,16.3   c0,0,0,0,0,0c-11.5,0-21.7-6.1-27.1-16.3l-2.2-4.1c-6.1-11.5-16.8-19.9-29.4-23.1c-12.6-3.2-26-0.8-36.8,6.5l-5.3,3.6   c-16.7,11.3-26.7,30-26.7,50.2v0.8c0,28.1,19.1,52.3,46.3,58.9c26.2,6.3,53.2,9.5,80.2,9.5c25.6,0,51.2-2.9,76.1-8.6l5.5-1.3   c27.7-6.3,47-30.6,47-59C377.6,393.7,367.4,374.8,350.3,363.6z"></path><path d="M376.2,180.9v-2.4c0-4.1-3.4-7.5-7.5-7.5h-4.1c-0.6-8.2-2-16.1-4.3-23.7l4.9-2c9-3.6,13.4-13.9,9.8-23   c-3.6-9-13.9-13.4-23-9.8l-6.8,2.7c-4.6-6.8-10-13.2-16-18.8l3.1-3.5c6.4-7.4,5.6-18.5-1.7-24.9c-7.4-6.4-18.5-5.6-24.9,1.7   l-5.7,6.5c-10-4.8-20.7-8.2-32-9.9V61c0-9.8-7.9-17.7-17.7-17.7c-9.8,0-17.7,7.9-17.7,17.7v5.4c-11.4,1.8-22.3,5.3-32.4,10.2   l-5.9-6.8c-6.4-7.4-17.6-8.1-24.9-1.7c-7.4,6.4-8.1,17.6-1.7,24.9l3.4,3.9c-5.9,5.6-11.2,11.9-15.9,18.7l-7.2-2.9   c-9-3.6-19.3,0.7-23,9.8c-3.6,9,0.7,19.3,9.8,23l5.2,2.1c-2.3,7.6-3.8,15.5-4.4,23.6h-4.1c-4.1,0-7.5,3.4-7.5,7.5v2.4   c-17.4,6.1-30,22.7-30,42.2c0,24.5,19.9,44.5,44.3,44.7c9.2,39,38.4,70.4,76.1,82.7c6,13.9,19.9,23.4,35.8,23.4s29.7-9.5,35.8-23.4   c37.7-12.4,66.8-43.7,76.1-82.7c24.5-0.2,44.3-20.2,44.3-44.7C406.2,203.7,393.6,187,376.2,180.9z M135.1,241.4v6.2   c-12-1.7-21.2-12-21.2-24.5c0-8.1,3.9-15.3,10-19.8v18.8c0,7,4.5,13,11.3,15.3V241.4z M158.6,154.9c8.7,2.8,18.2-1.6,21.7-10.2   c3.1-7.8,0.3-16.5-6.3-21.1c3.1-4.2,6.5-8.1,10.2-11.6c6.5,6.8,17.2,7.3,24.3,1.1v0c6-5.2,7.6-13.5,4.6-20.4   c6.2-2.7,12.8-4.7,19.6-6c0.7,9.1,8.3,16.3,17.6,16.3c9.3,0,16.9-7.2,17.6-16.4c6.6,1.2,13,3.2,19,5.7c-3.2,6.9-1.6,15.4,4.4,20.7   v0c7.3,6.3,18.2,5.6,24.7-1.5c3.7,3.6,7.2,7.5,10.3,11.7c-6.9,4.5-9.9,13.4-6.7,21.4c3.5,8.7,13.2,13.1,22,10.1   c1.4,5.2,2.4,10.7,2.9,16.2h-189C156.1,165.5,157.1,160.1,158.6,154.9z M300.1,194.5l-15,14c-1.4,1.3-3.3,2-5.1,2   c-2,0-4-0.8-5.5-2.4c-2.8-3-2.7-7.8,0.4-10.6l15-14c3-2.8,7.8-2.7,10.6,0.4S303.1,191.7,300.1,194.5z M185.1,194.5l-15,14   c-1.4,1.3-3.3,2-5.1,2c-2,0-4-0.8-5.5-2.4c-2.8-3-2.7-7.8,0.4-10.6l15-14c3-2.8,7.8-2.7,10.6,0.4S188.1,191.7,185.1,194.5z    M268.4,310.4c-5.7,1.1-11.5,1.6-17.6,1.6c-6,0-12.3-0.5-18.9-1.5c-4.1-0.6-6.9-4.5-6.3-8.6c0.6-4.1,4.5-6.9,8.6-6.3   c11.6,1.8,21.9,1.8,31.5,0c4.1-0.8,8,1.9,8.7,6C275.1,305.8,272.4,309.7,268.4,310.4z M290.1,327.4l1.7-15.2c1.1-9.5-2-18.9-8.3-26   c-6.4-7.1-15.5-11.2-25.1-11.2h-16.8c-9.6,0-18.7,4.1-25.1,11.2c-6.3,7.1-9.4,16.6-8.3,26l1.7,15.2c-32.2-15.1-54.6-47.7-54.8-85.4   l52.4,11.3c9.2,2,18.8-1.7,23.8-9.2l1.2-1.8c1.3-1.9,3.7-3.1,6.4-3.1h22.6c2.5,0,4.9,1.1,6.2,2.9l2.1,2.8c4.2,5.7,11,9,18.2,9   c1.7,0,3.4-0.2,5.1-0.6l51.7-11.3C344.6,279.8,322.3,312.3,290.1,327.4z M364.9,247.6v-6.2v-3.9c6.7-2.4,11.3-8.5,11.3-15.4v-18.7   c6.1,4.5,10,11.7,10,19.8C386.2,235.6,376.9,245.9,364.9,247.6z"></path></g></svg>