<svg height='100px' width='100px'  fill="#333333" xmlns="http://www.w3.org/2000/svg" xmlns:xlink="http://www.w3.org/1999/xlink" version="1.1" x="0px" y="0px" viewBox="0 0 500 500" style="enable-background:new 0 0 500 500;" xml:space="preserve"><g><path d="M364.9,171.6v-25.4c0-63.1-51.3-114.3-114.3-114.3c-63.7,0-115.5,51.8-115.5,115.5v24.2c-23,1.8-41.2,21.1-41.2,44.6   c0,23.8,18.7,43.3,42.2,44.6c0.2,1.3,0.3,2.5,0.5,3.8c0,0.3,0.1,0.6,0.1,0.9c0.2,1.3,0.5,2.6,0.7,3.9c0,0,0,0.1,0,0.2   c0.3,1.3,0.6,2.6,0.9,3.9c0.1,0.3,0.1,0.6,0.2,0.9c0.3,1.3,0.7,2.6,1,3.8c0.1,0.2,0.1,0.4,0.2,0.5c0.3,1.2,0.7,2.3,1.1,3.5   c0.1,0.2,0.1,0.5,0.2,0.7c0.4,1.2,0.9,2.5,1.3,3.7c0.1,0.3,0.2,0.5,0.3,0.8c0.4,1.2,0.9,2.3,1.4,3.5c0,0.1,0.1,0.2,0.1,0.3   c0.5,1.2,1.1,2.4,1.6,3.6c0.1,0.3,0.2,0.5,0.4,0.8c0.6,1.2,1.1,2.3,1.7,3.5c0.1,0.1,0.1,0.3,0.2,0.4c0.6,1.1,1.1,2.1,1.7,3.2   c0.1,0.2,0.2,0.4,0.4,0.6c0.6,1.1,1.3,2.2,2,3.3c0.1,0.2,0.3,0.4,0.4,0.7c0.6,1,1.3,2.1,2,3.1c0.1,0.1,0.1,0.2,0.2,0.3   c0.7,1.1,1.5,2.1,2.2,3.2c0.2,0.2,0.3,0.5,0.5,0.7c0.8,1,1.6,2.1,2.4,3.1c0.1,0.1,0.2,0.2,0.2,0.3c0.8,1,1.5,1.9,2.3,2.8   c0.2,0.2,0.3,0.4,0.5,0.6c0.8,1,1.7,1.9,2.5,2.9c0.2,0.2,0.3,0.4,0.5,0.5c0.8,0.9,1.7,1.8,2.5,2.6c0.1,0.1,0.2,0.2,0.3,0.3   c0.9,0.9,1.8,1.8,2.8,2.7c0.2,0.2,0.4,0.4,0.6,0.6c1,0.9,1.9,1.8,2.9,2.6c0.1,0.1,0.1,0.1,0.2,0.2c0.9,0.8,1.9,1.6,2.9,2.4   c0.2,0.2,0.4,0.3,0.6,0.5c1,0.8,2,1.6,3.1,2.3c0.2,0.1,0.4,0.3,0.6,0.4c1,0.7,1.9,1.4,2.9,2.1c0.1,0.1,0.3,0.2,0.4,0.3   c1.1,0.7,2.2,1.4,3.2,2.1c0.2,0.1,0.5,0.3,0.7,0.4c1.1,0.7,2.2,1.4,3.4,2c0,0,0.1,0,0.1,0.1c1.1,0.6,2.2,1.2,3.4,1.8   c0.2,0.1,0.5,0.3,0.7,0.4c1.1,0.6,2.3,1.2,3.5,1.7c0.2,0.1,0.4,0.2,0.6,0.3c1.1,0.5,2.2,1,3.3,1.5c0.2,0.1,0.4,0.2,0.5,0.2   c1.2,0.5,2.4,1,3.6,1.5c0.3,0.1,0.5,0.2,0.8,0.3c1.3,0.5,2.5,0.9,3.8,1.4c0,0,0,0,0,0c7.6,12.5,21.3,20.7,36.8,20.7   s29.2-8.2,36.8-20.7c0,0,0,0,0,0c1.3-0.4,2.5-0.9,3.8-1.4c0.3-0.1,0.5-0.2,0.8-0.3c1.2-0.5,2.4-1,3.6-1.5c0.2-0.1,0.4-0.2,0.5-0.2   c1.1-0.5,2.2-1,3.3-1.5c0.2-0.1,0.4-0.2,0.6-0.3c1.2-0.6,2.3-1.1,3.5-1.7c0.2-0.1,0.5-0.2,0.7-0.4c1.1-0.6,2.3-1.2,3.4-1.8   c0,0,0.1,0,0.1-0.1c1.1-0.7,2.3-1.3,3.4-2c0.2-0.1,0.5-0.3,0.7-0.4c1.1-0.7,2.2-1.4,3.2-2.1c0.1-0.1,0.3-0.2,0.4-0.3   c1-0.7,2-1.4,2.9-2.1c0.2-0.1,0.4-0.3,0.6-0.4c1-0.8,2-1.5,3.1-2.3c0.2-0.2,0.4-0.3,0.6-0.5c1-0.8,1.9-1.6,2.9-2.4   c0.1-0.1,0.1-0.1,0.2-0.2c1-0.9,2-1.7,2.9-2.6c0.2-0.2,0.4-0.4,0.6-0.6c0.9-0.9,1.9-1.8,2.8-2.7c0.1-0.1,0.2-0.2,0.3-0.3   c0.8-0.9,1.7-1.7,2.5-2.6c0.2-0.2,0.3-0.4,0.5-0.5c0.9-0.9,1.7-1.9,2.5-2.9c0.2-0.2,0.3-0.4,0.5-0.6c0.8-0.9,1.6-1.9,2.3-2.8   c0.1-0.1,0.2-0.2,0.2-0.3c0.8-1,1.6-2.1,2.4-3.1c0.2-0.2,0.3-0.5,0.5-0.7c0.8-1.1,1.5-2.1,2.2-3.2c0.1-0.1,0.1-0.2,0.2-0.3   c0.7-1,1.3-2,2-3.1c0.1-0.2,0.3-0.4,0.4-0.7c0.7-1.1,1.3-2.2,2-3.3c0.1-0.2,0.2-0.4,0.4-0.6c0.6-1,1.2-2.1,1.7-3.2   c0.1-0.1,0.1-0.3,0.2-0.4c0.6-1.2,1.2-2.3,1.7-3.5c0.1-0.3,0.2-0.5,0.4-0.8c0.6-1.2,1.1-2.4,1.6-3.6c0-0.1,0.1-0.2,0.1-0.3   c0.5-1.2,0.9-2.3,1.4-3.5c0.1-0.3,0.2-0.5,0.3-0.8c0.5-1.2,0.9-2.4,1.3-3.7c0.1-0.2,0.1-0.5,0.2-0.7c0.4-1.1,0.7-2.3,1.1-3.5   c0.1-0.2,0.1-0.4,0.2-0.5c0.4-1.3,0.7-2.5,1-3.8c0.1-0.3,0.1-0.6,0.2-0.9c0.3-1.3,0.6-2.6,0.9-3.9c0,0,0-0.1,0-0.2   c0.3-1.3,0.5-2.6,0.7-3.9c0-0.3,0.1-0.6,0.1-0.9c0.2-1.3,0.4-2.5,0.5-3.8c23.5-1.3,42.2-20.8,42.2-44.6   C406.2,192.7,388,173.4,364.9,171.6z M155.1,147.4c0-20.3,6.4-39.2,17.2-54.6c7.3-10.5,22.1-12,31.6-3.5   c12,10.7,28.5,17.1,46.1,17.1c17.8,0,34.3-6.5,46.3-17.3c9.5-8.6,24.4-7.1,31.7,3.4c10.7,15.3,16.9,33.8,16.9,53.8v35.2V234v12.4   c0,1.4,0,2.8-0.1,4.2c0,0.1,0,0.3,0,0.4c-0.1,1.3-0.2,2.6-0.3,3.9c0,0.2,0,0.4-0.1,0.6c-0.1,1.3-0.3,2.5-0.4,3.8   c0,0.2-0.1,0.4-0.1,0.6c-0.2,1.3-0.4,2.5-0.6,3.8c0,0.2-0.1,0.4-0.1,0.5c-0.2,1.3-0.5,2.6-0.8,3.8c0,0.1,0,0.2-0.1,0.2   c-0.3,1.3-0.6,2.6-1,3.9c0,0,0,0.1,0,0.1c-0.4,1.3-0.8,2.5-1.2,3.8c0,0.1-0.1,0.3-0.1,0.4c-0.4,1.2-0.8,2.4-1.3,3.6   c-0.1,0.2-0.1,0.3-0.2,0.5c-0.5,1.2-0.9,2.4-1.4,3.5c-0.1,0.1-0.1,0.3-0.2,0.4c-0.5,1.2-1.1,2.4-1.6,3.5c0,0.1-0.1,0.2-0.1,0.2   c-1.2,2.5-2.5,4.9-4,7.2c0,0,0,0,0,0c-0.7,1.2-1.4,2.3-2.2,3.4c0,0.1-0.1,0.1-0.1,0.2c-0.7,1.1-1.5,2.2-2.3,3.2   c-0.1,0.1-0.1,0.1-0.2,0.2c-0.8,1.1-1.6,2.1-2.4,3.2c0,0-0.1,0.1-0.1,0.1c-0.9,1.1-1.7,2.1-2.6,3.1c-8.4,9.6-23.8,3.4-24.2-8.6   c5.6-0.8,11-2.6,15.9-5.6c13.2-8.1,18.9-22.9,19-25.9c-2.4,1.7-8.2,2.6-10.1,2.7c-7.9,0.7-16.4-2-22.8-6.5   c-8.3-5.9-14.1-15.1-24.2-18.4c-9.3-3-19.6,0.7-24.9,8.8c-5.3-8.2-15.6-11.8-24.9-8.8c-10,3.3-15.9,12.5-24.2,18.4   c-6.5,4.6-14.9,7.3-22.8,6.5c-1.8-0.2-7.7-1.1-10.1-2.7c0.2,3,5.8,17.8,19,25.9c4.9,3,10.3,4.8,15.8,5.6   c-0.8,11.7-15.9,17.5-24.2,8.1c-0.1-0.1-0.1-0.1-0.2-0.2c-0.8-1-1.7-2-2.5-3c-0.1-0.1-0.1-0.2-0.2-0.3c-0.8-1-1.6-2.1-2.4-3.1   c0-0.1-0.1-0.1-0.1-0.2c-1.6-2.2-3.1-4.5-4.5-6.9c0,0,0-0.1-0.1-0.1c-0.7-1.1-1.3-2.3-2-3.4c-0.1-0.1-0.1-0.2-0.2-0.3   c-0.6-1.1-1.2-2.3-1.7-3.4c-0.1-0.2-0.1-0.3-0.2-0.5c-0.5-1.1-1.1-2.3-1.6-3.4c-0.1-0.2-0.1-0.3-0.2-0.5c-0.5-1.2-1-2.4-1.4-3.5   c-0.1-0.1-0.1-0.3-0.2-0.4c-0.5-1.2-0.9-2.5-1.3-3.7c0-0.1,0-0.1-0.1-0.2c-0.4-1.3-0.8-2.6-1.2-3.9c0,0,0-0.1,0-0.1   c-0.4-1.3-0.7-2.6-1-3.9c0-0.1-0.1-0.3-0.1-0.4c-0.3-1.3-0.5-2.5-0.8-3.8c0-0.2-0.1-0.4-0.1-0.6c-0.2-1.2-0.4-2.5-0.6-3.8   c0-0.2-0.1-0.4-0.1-0.6c-0.2-1.3-0.3-2.5-0.4-3.8c0-0.2,0-0.4-0.1-0.6c-0.1-1.3-0.2-2.6-0.3-4c0-0.1,0-0.3,0-0.4   c-0.1-1.4-0.1-2.8-0.1-4.2V234v-52.6V147.4z M248.8,280.6h2.3c5.3,7.5,14.1,13.5,22.6,16.8l-2.1,15.4c-1.2,8.9-10.5,15.5-21.6,15.5   s-20.4-6.7-21.6-15.5l-2.1-15.4C234.7,294.1,243.6,288.1,248.8,280.6z M113.8,216.2c0-12.5,9.3-22.8,21.2-24.5V234v6.6   C123.1,238.9,113.8,228.6,113.8,216.2z M364.9,240.6V234v-42.3c12,1.7,21.2,12,21.2,24.5S376.9,238.9,364.9,240.6z"></path><path d="M279.1,207.5c5.6-5.6,14.8-5.6,20.5,0c1.5,1.5,3.4,2.2,5.3,2.2s3.8-0.7,5.3-2.2c2.9-2.9,2.9-7.7,0-10.6   c-11.5-11.5-30.2-11.5-41.7,0c-2.9,2.9-2.9,7.7,0,10.6C271.4,210.5,276.2,210.5,279.1,207.5z"></path><path d="M200.4,207.5c5.6-5.6,14.8-5.6,20.5,0c1.5,1.5,3.4,2.2,5.3,2.2s3.8-0.7,5.3-2.2c2.9-2.9,2.9-7.7,0-10.6   c-11.5-11.5-30.2-11.5-41.7,0c-2.9,2.9-2.9,7.7,0,10.6C192.8,210.5,197.5,210.5,200.4,207.5z"></path><path d="M242,303h16c2.8,0,5-2.2,5-5s-2.2-5-5-5h-16c-2.8,0-5,2.2-5,5S239.2,303,242,303z"></path><path d="M350.3,363.6l-5.4-3.6c-10.8-7.1-24.2-9.3-36.7-6.1c-12.5,3.2-23.2,11.6-29.2,23l-2,3.8c-5.4,10.2-15.5,16.3-27.1,16.3   c0,0,0,0,0,0c-11.5,0-21.7-6.1-27.1-16.3l-2.2-4.1c-6.1-11.5-16.8-19.9-29.4-23.1c-12.6-3.2-26-0.8-36.8,6.5l-5.3,3.6   c-16.7,11.3-26.7,30-26.7,50.2v0.8c0,28.1,19.1,52.3,46.3,58.9c26.2,6.3,53.2,9.5,80.2,9.5c25.6,0,51.2-2.9,76.1-8.6l5.5-1.3   c27.7-6.3,47-30.6,47-59C377.6,393.7,367.4,374.8,350.3,363.6z M326.1,453.7l-5.5,1.3c-48.2,11-99.1,10.7-147.1-0.9   c-18.3-4.4-31-20.6-31-39.4v-0.8c0-13.5,6.7-26.1,17.9-33.6l5.3-3.6c4.4-2.9,9.3-4.4,14.4-4.4c2.1,0,4.3,0.3,6.4,0.8   c7.2,1.8,13.1,6.4,16.6,13l2.2,4.1C214.1,407,230.9,417,250,417c0,0,0,0,0,0c19.1,0,35.8-10.1,44.7-27l2-3.8   c3.5-6.5,9.3-11.2,16.5-13c7.2-1.8,14.5-0.6,20.7,3.5l5.4,3.6v0c11.4,7.5,18.3,20.2,18.3,33.9C357.6,433.2,344.6,449.5,326.1,453.7   z"></path></g></svg>