<svg height='100px' width='100px'  fill="#333333" xmlns="http://www.w3.org/2000/svg" xmlns:xlink="http://www.w3.org/1999/xlink" version="1.1" x="0px" y="0px" viewBox="0 0 500 500" style="enable-background:new 0 0 500 500;" xml:space="preserve"><g><path d="M291.3,182.5c-19.6,0-35.9,14.1-39.5,32.7h-3.7c-3.5-18.6-19.9-32.7-39.5-32.7c-22.2,0-40.2,18-40.2,40.2   s18,40.2,40.2,40.2c19.6,0,35.9-14.1,39.5-32.7h3.7c3.5,18.6,19.9,32.7,39.5,32.7c22.2,0,40.2-18,40.2-40.2   S313.5,182.5,291.3,182.5z M208.7,247.8c-13.9,0-25.2-11.3-25.2-25.2s11.3-25.2,25.2-25.2s25.2,11.3,25.2,25.2   S222.6,247.8,208.7,247.8z M291.3,247.8c-13.9,0-25.2-11.3-25.2-25.2s11.3-25.2,25.2-25.2s25.2,11.3,25.2,25.2   S305.2,247.8,291.3,247.8z"></path><path d="M291.2,212.6c-5.8,0-11.2,2.3-15.3,6.3c-2.9,2.9-2.9,7.7,0,10.6c2.9,2.9,7.7,2.9,10.6,0c1.3-1.3,2.9-1.9,4.7-1.9   s3.4,0.7,4.7,1.9c1.5,1.5,3.4,2.2,5.3,2.2c1.9,0,3.8-0.7,5.3-2.2c2.9-2.9,2.9-7.7,0-10.6C302.5,214.9,297,212.6,291.2,212.6z"></path><path d="M208.8,212.6c-5.8,0-11.2,2.3-15.3,6.3c-2.9,2.9-2.9,7.7,0,10.6c2.9,2.9,7.7,2.9,10.6,0c1.3-1.3,2.9-1.9,4.7-1.9   s3.4,0.7,4.7,1.9c1.5,1.5,3.4,2.2,5.3,2.2c1.9,0,3.8-0.7,5.3-2.2c2.9-2.9,2.9-7.7,0-10.6C220,214.9,214.5,212.6,208.8,212.6z"></path><path d="M254.7,256.9c-1.3,1.3-2.9,1.9-4.7,1.9s-3.4-0.7-4.7-1.9c-2.9-2.9-7.7-2.9-10.6,0c-2.9,2.9-2.9,7.7,0,10.6   c4.1,4.1,9.5,6.3,15.3,6.3s11.2-2.3,15.3-6.3c2.9-2.9,2.9-7.7,0-10.6C262.4,254,257.6,254,254.7,256.9z"></path><path d="M351.9,342.7c7.1-3.5,21-17.4,21-50.1v-18.9c19.2-5.1,33.3-22.5,33.3-43.2s-14.2-38.2-33.3-43.2V180   c8.6-7.2,14.3-17.7,14.9-29.5c0.6-11.5-3.5-22.1-10.6-29.9c-6-6.6-9.3-15.2-9.7-24.1c-0.9-18.7-9.1-47.2-49.5-46.6   c-5.1,0.1-10,0.8-14.7,2.2c-3.9,1.2-8.1,0.6-11.5-1.6l-0.1,0c-18-12-41.7-18.5-66.8-18.5s-48.8,6.6-66.8,18.5   c-19.2,12.8-29.8,30.2-29.8,49.1c0,0.3,0,0.6,0,0.9c0.1,5.8-1.9,11.4-5.6,16c-5.9,7.4-9.6,17.8-9.6,29.4c0,15.9,4.9,32,14,40.5v1.1   c-19.2,5.1-33.3,22.5-33.3,43.2s14.2,38.2,33.3,43.2v18.9c0,35,13.9,46.6,21,50.1c3.6,1.8,6.5,4.7,7.9,8.5c0.6,1.7,1.7,3.7,3.1,5.6   l-10,6.8c-16.7,11.3-26.7,30-26.7,50.2v0.8c0,28.1,19.1,52.3,46.3,58.9c26.2,6.3,53.2,9.5,80.2,9.5c25.6,0,51.2-2.9,76.1-8.6   l5.5-1.3c27.7-6.3,47-30.6,47-59c0-20.4-10.2-39.3-27.3-50.6l-9.7-6.4c1.5-2.1,2.6-4.1,3.3-6C345.3,347.4,348.3,344.5,351.9,342.7z    M372.8,208.6c7.9,4.1,13.3,12.4,13.3,21.9s-5.4,17.8-13.3,21.9V208.6z M127.2,252.4c-7.9-4.1-13.3-12.4-13.3-21.9   s5.4-17.8,13.3-21.9V252.4z M176.3,60c16.6-9.1,35.1-13.2,55-12c2.8,0.2,4.9,2.5,4.7,5.3c-0.2,2.8-2.5,4.9-5.3,4.7   c-18-1.1-34.7,2.6-49.6,10.8c-0.8,0.4-1.6,0.6-2.4,0.6c-1.8,0-3.5-0.9-4.4-2.6C173,64.4,173.9,61.3,176.3,60z M155.1,75.3   c1.5-1.4,3.1-2.8,4.7-4.1c2.1-1.8,5.3-1.4,7,0.7c1.8,2.1,1.4,5.3-0.7,7c-1.4,1.2-2.9,2.4-4.3,3.7c-1,0.9-2.2,1.3-3.4,1.3   c-1.4,0-2.7-0.6-3.7-1.6C152.9,80.3,153.1,77.2,155.1,75.3z M357.6,414.2c0,19-13,35.3-31.5,39.5l-5.5,1.3   c-48.2,11-99.1,10.7-147.1-0.9c-18.3-4.4-31-20.6-31-39.4v-0.8c0-13.5,6.7-26.1,17.9-33.6l13.3-9c7.5,5.6,16.1,9.8,22.9,9.8l0.1,0   c3.7,0,7.1,1.9,8.9,5c8.9,15.3,25.5,25.6,44.5,25.6s35.6-10.3,44.5-25.6c1.8-3.2,5.3-5,8.9-5l0.1,0c6.7,0,15.1-4.1,22.5-9.5   l13.3,8.8C350.8,387.8,357.6,400.5,357.6,414.2z M216.9,308.9c1.7-3.8,6.2-5.4,10-3.7c15.3,7.1,30.5,7.1,46.3,0   c3.8-1.7,8.2,0,9.9,3.8c1.7,3.8,0,8.2-3.8,9.9c-9.8,4.4-19.7,6.7-29.5,6.7c-9.8,0-19.6-2.2-29.2-6.7   C216.8,317.1,215.2,312.6,216.9,308.9z M300.2,276.2c-5.3,4.9-12.8,6.7-19.8,4.8c-9.3-2.5-19.6-3.9-30.4-3.9   c-10.8,0-21,1.4-30.2,3.8c-7,1.9-14.5,0.2-19.8-4.8c-13.3-12.4-28.2-20.5-44.4-24.1v-64c5.4-3.3,10.4-8.2,14.3-13.9   c5.7-8.3,15.9-12.2,25.8-10.1c9.3,2,19.2,3.1,29.2,3.1c13.6,0,26.8-1.9,38.9-5.6c19.7-6.2,36.7-16.9,48.2-30.9   c1.6-2,4.6-2.5,6.7-1.1c2.5,1.7,3,5.1,1.1,7.3c-1.6,1.9-3.3,3.8-5,5.6c-7.3,7.5-8.8,19-3.2,27.9c7,11,19.1,18.5,33,19.1V252   C328.4,255.7,313.6,263.8,300.2,276.2z"></path></g></svg>