<svg height='100px' width='100px'  fill="#333333" xmlns="http://www.w3.org/2000/svg" xmlns:xlink="http://www.w3.org/1999/xlink" version="1.1" x="0px" y="0px" viewBox="0 0 500 500" style="enable-background:new 0 0 500 500;" xml:space="preserve"><g><path d="M364,260.8c23.5-1.3,42.2-20.8,42.2-44.6c0-23.5-18.2-42.8-41.2-44.6v-15.9c0-0.6,0-1.3,0-1.9c0-0.3,0-0.7,0-1v-22   c0-46.7-38-84.7-84.7-84.7H260v-5.3c0-5.5-4.5-10-10-10s-10,4.5-10,10V46h-20.2c-46.7,0-84.7,38-84.7,84.7v22c0,0.5,0,0.9,0,1.3   c0,0.9,0,1.8,0,2.7v14.8c-23,1.8-41.2,21.1-41.2,44.6c0,23.8,18.7,43.3,42.2,44.6c4,32.1,21.4,60.2,46.4,78.4l-33.2,22.4   c-16.7,11.3-26.7,30-26.7,50.2v0.8c0,28.1,19.1,52.3,46.3,58.9c26.2,6.3,53.2,9.5,80.2,9.5c25.6,0,51.2-2.8,76.1-8.6l5.5-1.3   c27.7-6.3,47-30.6,47-59c0-20.4-10.2-39.3-27.3-50.6L317,339.7C342.3,321.4,359.9,293.2,364,260.8z M364.9,191.7   c12,1.7,21.2,12,21.2,24.5s-9.3,22.8-21.2,24.5V191.7z M135.1,240.6c-12-1.7-21.2-12-21.2-24.5s9.3-22.8,21.2-24.5V240.6z    M344.9,129.8c-6.8-7.6-15-14.4-24.4-20c-0.1-12.6-3.4-24.7-10.1-36.3C330.7,84.3,344.5,105.4,344.9,129.8z M260,66h19.4   c11,11,17.6,22.2,20,33.9c-12.2-4.4-25.5-7.3-39.4-8.2V66z M220.6,66H240v25.7c-14,0.9-27.3,3.8-39.4,8.2   C203,88.2,209.6,77,220.6,66z M189.6,73.5c-6.6,11.6-10,23.7-10.1,36.3c-9.4,5.6-17.6,12.3-24.4,20   C155.5,105.4,169.3,84.3,189.6,73.5z M257.6,341c-0.2,0-0.5,0-0.7,0.1c-0.6,0-1.1,0.1-1.7,0.1c-0.4,0-0.9,0-1.3,0.1   c-0.4,0-0.8,0-1.2,0c-0.9,0-1.8,0-2.6,0c-0.9,0-1.8,0-2.7,0c-0.2,0-0.4,0-0.7,0c-0.7,0-1.4-0.1-2.2-0.1c-0.2,0-0.4,0-0.6,0   c-0.8-0.1-1.6-0.1-2.4-0.2c-0.1,0-0.2,0-0.3,0c-6.7-0.6-13.3-2-19.7-4c-0.2-0.1-0.4-0.1-0.6-0.2c-0.6-0.2-1.1-0.4-1.7-0.6   c-0.5-0.2-0.9-0.3-1.4-0.5c-0.2-0.1-0.5-0.2-0.7-0.3c-34.9-13-60.2-46-61.9-84.9c0,0,0,0,0,0c0-0.7-0.1-1.4-0.1-2   c0-0.7,0-1.4,0-2.1v-65v-6.6c0.2,0,0.3,0,0.5,0c0.6,0,1.2,0.1,1.8,0.1h185.3c0.6,0,1.2,0,1.8-0.1c0.2,0,0.3,0,0.5,0v6.6v65   c0,0.7,0,1.4,0,2.1c0,0.6,0,1.3-0.1,2c0,0,0,0,0,0C342.8,298.4,305,337.2,257.6,341z"></path><path d="M289.2,287.4c-3.3-2.5-8-1.8-10.5,1.5c-6.6,8.7-14.8,11.7-25.9,9.7c-4.1-0.8-8,1.9-8.8,6c-0.8,4.1,1.9,8,6,8.8   c3.1,0.6,6.1,0.9,9,0.9c12.7,0,23.5-5.5,31.6-16.2C293.1,294.7,292.5,289.9,289.2,287.4z"></path><path d="M318.7,199.8H181.3c-10.1,0-18.3,8.2-18.3,18.3v15.3c0,17.2,13.9,31.1,31.1,31.1h16.4c16.3,0,29.6-13.2,29.6-29.6v-1.4   c0-5.5,4.5-10,10-10s10,4.5,10,10v1.4c0,16.3,13.2,29.6,29.6,29.6h16.4c17.2,0,31.1-13.9,31.1-31.1v-15.3   C337,208,328.8,199.8,318.7,199.8z M192.4,216.5h-3c-4.4,0-8,3.6-8,8v1.2c0,2.8-2.2,5-5,5s-5-2.2-5-5v-1.2c0-9.9,8.1-18,18-18h3   c2.8,0,5,2.2,5,5S195.2,216.5,192.4,216.5z M288.8,216.5h-3c-4.4,0-8,3.6-8,8v1.2c0,2.8-2.2,5-5,5s-5-2.2-5-5v-1.2   c0-9.9,8.1-18,18-18h3c2.8,0,5,2.2,5,5S291.5,216.5,288.8,216.5z"></path></g></svg>