<svg height='100px' width='100px'  fill="#333333" xmlns="http://www.w3.org/2000/svg" xmlns:xlink="http://www.w3.org/1999/xlink" version="1.1" x="0px" y="0px" viewBox="0 0 500 500" style="enable-background:new 0 0 500 500;" xml:space="preserve"><g><path d="M258,293h-16c-2.8,0-5,2.2-5,5s2.2,5,5,5h16c2.8,0,5-2.2,5-5S260.8,293,258,293z"></path><path d="M445.5,187.2c0-18.9-33.8-42.3-81.2-58.6c-2.1-43.4-10.1-69.2-25-82.2C323,32.2,302.3,35,280.5,38   c-9.1,1.2-18.6,2.5-28.2,2.7c11.5,5.1,21.6,8.8,31.1,5.6c2.6-0.9,5.5,0.5,6.3,3.1c0.9,2.6-0.5,5.5-3.1,6.3   c-3.6,1.2-7.2,1.8-10.7,1.8c-10.8,0-21.6-4.9-32.8-10.1c-8-3.7-16.2-7.4-24.9-9.7c-21.3-2.8-41.3-5-57.2,8.9   C146,59.7,138,85.4,135.8,128.5c-47.9,16.2-82.3,39.8-82.3,58.7c0,10.5,24.3,20.3,43.4,28.8c-1.9,5-3,10.4-3,16.1   c0,24.7,20.1,44.7,44.7,44.7h0.6c7,25.4,22.5,47.2,43.2,62.4l-33.2,22.4c-16.7,11.3-26.7,30-26.7,50.2v0.8   c0,28.1,19.1,52.3,46.3,58.9c26.2,6.3,53.2,9.5,80.2,9.5c25.6,0,51.2-2.9,76.1-8.6l5.5-1.3c27.7-6.3,47-30.6,47-59   c0-20.4-10.2-39.3-27.3-50.6v0L317,339.7c21-15.1,36.7-37.2,43.8-62.8h0.6c24.7,0,44.7-20.1,44.7-44.7c0-5.7-1.1-11.1-3-16.1   C422,207.5,445.5,197.7,445.5,187.2z M135.1,246.4v10.2c-12-1.7-21.2-12-21.2-24.5s9.3-22.8,21.2-24.5V246.4z M155.1,185.5   c16.9-23.8,53.3-17.8,95.5-17.8h0c41.7,0,77.6-5.8,94.3,17.2v10.8c-4.5-3.1-9.9-5-15.7-5h-50.3c-10.2,0-19.1,5.6-23.7,13.8   c-3.3-1.1-6.9-1.1-10.3,0c-4.7-8.2-13.6-13.8-23.8-13.8h-50.3c-5.9,0-11.3,1.9-15.7,5V185.5z M302,270.2c0.7,0,1.3,0,2,0   c5.1,0,10.1-0.7,14.9-2.1l-5,7.5c-4.4,6.6-13.6,8.1-19.9,3.1l-11.4-9c-4.7-3.8-10.4-6.1-16.3-6.8c-0.3-0.5-0.6-0.9-1-1.3   c-2.9-2.9-7.7-2.9-10.6,0c-0.4,0.4-0.9,0.8-1.4,1.1h-6.6c-0.5-0.3-1-0.6-1.4-1.1c-2.9-2.9-7.7-2.9-10.6,0c-0.5,0.5-1,1.1-1.3,1.8   c-5.3,1.1-10.3,3.5-14.5,7.1l-9.2,7.8c-6.2,5.2-15.5,4-20.1-2.6l-4.5-6.5c2.9,0.6,5.8,1,8.8,1.1c0.7,0,1.3,0,2,0   c13.6,0,26.5-5.2,36.3-14.7c9.9-9.6,15.6-22.3,16-36c0.1-0.1,0.3-0.2,0.4-0.4c0.7-0.7,1.8-0.7,2.5,0c0.1,0.1,0.3,0.2,0.4,0.3   c0,0.2,0,0.4,0,0.5C252.8,247.2,274.9,269.2,302,270.2z M269.6,217.8l16-14.5c2-1.9,5.2-1.7,7.1,0.3c1.9,2,1.7,5.2-0.3,7.1   l-16,14.5c-1,0.9-2.2,1.3-3.4,1.3c-1.4,0-2.7-0.6-3.7-1.6C267.4,222.8,267.6,219.6,269.6,217.8z M250,328.4   c-11.1,0-20.4-6.7-21.6-15.5l-2.3-16.4c-1.2-8.4,7-15.8,17.6-15.8h12.6c10.5,0,18.8,7.4,17.6,15.8l-2.3,16.4   C270.4,321.7,261.1,328.4,250,328.4z M187.4,210.7l-16,14.5c-1,0.9-2.2,1.3-3.4,1.3c-1.4,0-2.7-0.6-3.7-1.6c-1.9-2-1.7-5.2,0.3-7.1   l16-14.5c2-1.9,5.2-1.7,7.1,0.3C189.6,205.7,189.4,208.9,187.4,210.7z M364.9,256.6v-10.2v-38.7c12,1.7,21.2,12,21.2,24.5   S376.9,254.9,364.9,256.6z"></path></g></svg>