<svg height='100px' width='100px'  fill="#333333" xmlns="http://www.w3.org/2000/svg" xmlns:xlink="http://www.w3.org/1999/xlink" version="1.1" x="0px" y="0px" viewBox="0 0 500 500" style="enable-background:new 0 0 500 500;" xml:space="preserve"><g><path d="M289.5,213.1c-5.6,0-10.8,2.2-14.7,6.1c-2.9,2.9-2.9,7.7,0,10.6c2.9,2.9,7.7,2.9,10.6,0c2.3-2.3,6-2.3,8.3,0   c1.5,1.5,3.4,2.2,5.3,2.2s3.8-0.7,5.3-2.2c2.9-2.9,2.9-7.7,0-10.6C300.3,215.3,295,213.1,289.5,213.1z"></path><circle cx="213" cy="224.4" r="11.8"></circle><path d="M289.2,286.4c-3.3-2.5-8-1.8-10.5,1.5c-6.6,8.7-14.8,11.7-25.9,9.7c-4.1-0.8-8,1.9-8.8,6s1.9,8,6,8.8   c3.1,0.6,6.1,0.9,9,0.9c12.7,0,23.5-5.5,31.6-16.2C293.1,293.7,292.5,288.9,289.2,286.4z"></path><path d="M265.3,275.6c2.9-2.9,2.9-7.7,0-10.6c-2.9-2.9-7.7-2.9-10.6,0c-1.3,1.3-2.9,1.9-4.7,1.9s-3.4-0.7-4.7-1.9   c-2.9-2.9-7.7-2.9-10.6,0c-2.9,2.9-2.9,7.7,0,10.6c4.1,4.1,9.5,6.3,15.3,6.3S261.2,279.6,265.3,275.6z"></path><path d="M363.7,260.8c23.6-1.2,42.4-20.8,42.4-44.7c0-23.5-18.2-42.8-41.2-44.6V154c0-5.1-0.3-10-1-14.7   c19.8-8.6,33.6-28.4,33.6-51.3c0-30.9-25.1-56-56-56c-13.1,0-25.2,4.5-34.8,12.1c-6.3-3.2-13.4-5-21-5c-14.7,0-27.9,6.9-36.4,17.6   c-63.1,0.4-114.3,35.2-114.3,98.5v16.4c-23,1.8-41.2,21.1-41.2,44.6c0,23.9,18.8,43.5,42.4,44.7c4.6,31.9,22.3,59.6,47.5,77.4   l-34.7,23.4c-16.7,11.3-26.7,30-26.7,50.2v0.8c0,28.1,19.1,52.3,46.3,58.9c26.2,6.3,53.2,9.5,80.2,9.5c25.6,0,51.2-2.9,76.1-8.6   l5.5-1.3c27.7-6.3,47-30.6,47-59c0-20.4-10.2-39.3-27.3-50.6l-34.8-22.9C341.1,320.9,359.1,293,363.7,260.8z M364.9,191.7   c12,1.7,21.2,12,21.2,24.5s-9.3,22.8-21.2,24.5V191.7z M135.1,240.6c-12-1.7-21.2-12-21.2-24.5s9.3-22.8,21.2-24.5V240.6z    M341.5,43.6c2.8,0,5,2.2,5,5s-2.2,5-5,5c-19,0-34.4,15.4-34.4,34.4c0,2.8-2.2,5-5,5s-5-2.2-5-5C297.1,63.5,317,43.6,341.5,43.6z    M250,339.3c-52.3,0-94.9-42.6-94.9-94.9c0,0,0,0,0,0c0-0.3,0-3.7,0-9c0.1,0,0.2-0.1,0.2-0.1l0.7-34.5   c0.7-32.7,27.4-58.9,60.1-58.9h110.5c3.3,0.9,6.8,1.5,10.3,1.8c5,10,7.8,21.2,7.8,32.7c0.1,28.2,0.1,66.7,0.1,67.9c0,0,0,0,0,0   C344.9,296.7,302.3,339.3,250,339.3z"></path></g></svg>