<svg height='100px' width='100px'  fill="#333333" xmlns="http://www.w3.org/2000/svg" xmlns:xlink="http://www.w3.org/1999/xlink" version="1.1" x="0px" y="0px" viewBox="0 0 500 500" style="enable-background:new 0 0 500 500;" xml:space="preserve"><g><path d="M206.5,242.5c2.3-2.3,6-2.3,8.3,0c1.5,1.5,3.4,2.2,5.3,2.2s3.8-0.7,5.3-2.2c2.9-2.9,2.9-7.7,0-10.6   c-3.9-3.9-9.2-6.1-14.7-6.1s-10.8,2.2-14.7,6.1c-2.9,2.9-2.9,7.7,0,10.6C198.9,245.5,203.6,245.5,206.5,242.5z"></path><circle cx="287.2" cy="237.1" r="11.8"></circle><path d="M430,383.1c-27-41.6-37-86.5-30.8-137.1c4.4-6.9,6.9-15.1,6.9-23.9c0-8.5-2.4-16.5-6.6-23.3v-17.1c0-82.2-66.9-149-149-149   c-82.8,0-150.2,67.4-150.2,150.2v15.9c-4.2,6.8-6.6,14.8-6.6,23.3c0,8.7,2.5,16.7,6.7,23.6C104,302.7,94,348.8,71.1,383   c-1.6,2.4-2.1,5.3-1.4,8.1s2.6,5.1,5.1,6.4c15.7,8.1,31.7,15.2,47.7,21.1c0.8,12.3,5.2,23.7,12.4,33c0.1,0.1,0.1,0.1,0.2,0.2   c0.4,0.5,0.8,1,1.2,1.5c0.1,0.1,0.2,0.2,0.3,0.4c0.4,0.5,0.8,0.9,1.2,1.4c0.1,0.2,0.3,0.3,0.4,0.5c0.4,0.4,0.8,0.8,1.2,1.2   c0.2,0.2,0.3,0.4,0.5,0.5c0.4,0.4,0.8,0.7,1.1,1.1c0.2,0.2,0.4,0.4,0.6,0.6c0.4,0.3,0.7,0.7,1.1,1c0.2,0.2,0.5,0.4,0.7,0.6   c0.4,0.3,0.7,0.6,1.1,0.9c0.3,0.2,0.5,0.4,0.8,0.6c0.4,0.3,0.7,0.6,1.1,0.9c0.3,0.2,0.6,0.4,0.9,0.6c0.4,0.3,0.7,0.5,1.1,0.8   c0.3,0.2,0.6,0.4,0.9,0.6c0.4,0.2,0.7,0.5,1.1,0.7c0.3,0.2,0.7,0.4,1,0.6c0.4,0.2,0.7,0.4,1.1,0.7c0.3,0.2,0.7,0.4,1.1,0.6   c0.4,0.2,0.7,0.4,1.1,0.6c0.4,0.2,0.7,0.4,1.1,0.6c0.4,0.2,0.7,0.4,1.1,0.5c0.4,0.2,0.8,0.4,1.2,0.5c0.4,0.2,0.7,0.3,1.1,0.5   c0.4,0.2,0.9,0.3,1.3,0.5c0.3,0.1,0.7,0.3,1,0.4c0.5,0.2,0.9,0.3,1.4,0.5c0.3,0.1,0.7,0.2,1,0.3c0.5,0.2,1.1,0.3,1.6,0.5   c0.3,0.1,0.6,0.2,0.8,0.3c0.8,0.2,1.6,0.5,2.5,0.7c26.2,6.3,53.2,9.5,80.2,9.5c25.6,0,51.2-2.9,76.1-8.6l5.5-1.3   c0.8-0.2,1.7-0.4,2.5-0.6c0.3-0.1,0.6-0.2,0.8-0.2c0.5-0.2,1.1-0.3,1.6-0.5c0.3-0.1,0.7-0.2,1-0.3c0.5-0.2,1-0.3,1.4-0.5   c0.4-0.1,0.7-0.3,1.1-0.4c0.4-0.2,0.9-0.3,1.3-0.5c0.4-0.2,0.7-0.3,1.1-0.5c0.4-0.2,0.8-0.4,1.2-0.5c0.4-0.2,0.7-0.4,1.1-0.5   c0.4-0.2,0.8-0.4,1.2-0.6c0.4-0.2,0.7-0.4,1.1-0.6c0.4-0.2,0.7-0.4,1.1-0.6c0.4-0.2,0.7-0.4,1.1-0.6c0.3-0.2,0.7-0.4,1-0.6   c0.4-0.2,0.7-0.5,1.1-0.7c0.3-0.2,0.6-0.4,1-0.6c0.4-0.3,0.7-0.5,1.1-0.8c0.3-0.2,0.6-0.4,0.9-0.6c0.4-0.3,0.7-0.6,1.1-0.8   c0.3-0.2,0.6-0.4,0.8-0.7c0.4-0.3,0.7-0.6,1.1-0.9c0.3-0.2,0.5-0.4,0.8-0.7c0.4-0.3,0.7-0.7,1.1-1c0.2-0.2,0.5-0.4,0.7-0.6   c0.4-0.4,0.7-0.7,1.1-1.1c0.2-0.2,0.4-0.4,0.6-0.6c0.4-0.4,0.7-0.8,1.1-1.2c0.2-0.2,0.4-0.4,0.5-0.6c0.4-0.4,0.7-0.8,1.1-1.3   c0.2-0.2,0.3-0.4,0.4-0.5c0.4-0.5,0.7-0.9,1.1-1.4c0.1-0.2,0.2-0.3,0.4-0.5c0.4-0.5,0.8-1,1.1-1.5c0.1-0.1,0.2-0.2,0.3-0.4   c0.4-0.5,0.8-1.1,1.1-1.7c0-0.1,0.1-0.1,0.1-0.2c5.6-8.7,9.1-18.8,9.7-29.7c16-5.7,32.3-12.4,48.4-20c2.6-1.2,4.5-3.5,5.3-6.3   C432,388.5,431.5,385.5,430,383.1z M293.2,179.5c0.8-2.6,3.7-4.1,6.3-3.2c2.8,0.9,5.7,1.7,8.6,2.3c2.7,0.6,4.4,3.3,3.8,6   c-0.5,2.3-2.6,3.9-4.9,3.9c-0.4,0-0.7,0-1.1-0.1c-3.1-0.7-6.3-1.6-9.4-2.6C293.8,185,292.4,182.2,293.2,179.5z M208.4,104.7   c2.3-1.5,5.4-0.7,6.9,1.6c0.2,0.4,25.1,40,64.1,61.2c2.4,1.3,3.3,4.4,2,6.8c-0.9,1.7-2.6,2.6-4.4,2.6c-0.8,0-1.6-0.2-2.4-0.6   c-41.4-22.5-66.8-63.1-67.9-64.8C205.3,109.3,206,106.2,208.4,104.7z M155.1,205c16.6-5.2,31.5-15.2,42.7-28.8   c4-4.9,7.5-10.2,10.4-15.8c6.2,7,13.1,13.4,20.6,19.1c25.5,19.4,56,29.6,88.1,29.6h7.9c6.8,0,13.5-0.5,20.2-1.4v38.8   c0,52.3-42.6,94.9-94.9,94.9s-94.9-42.6-94.9-94.9V205z M121.3,239.8c-0.5-0.4-0.9-0.9-1.3-1.4c0,0-0.1-0.1-0.1-0.1   c-0.4-0.5-0.9-1-1.3-1.6c0,0,0,0,0-0.1c-3-4.1-4.8-9.1-4.8-14.6c0-5.4,1.8-10.5,4.8-14.6c0,0,0.1-0.1,0.1-0.1   c0.4-0.5,0.8-1,1.2-1.4c0.1-0.1,0.2-0.2,0.3-0.3c0.4-0.5,0.9-1,1.3-1.4c0.1,0,0.1-0.1,0.2-0.1c0.4-0.4,0.8-0.7,1.2-1.1   c0.2-0.1,0.4-0.3,0.5-0.4c0.4-0.3,0.7-0.5,1.1-0.8c0.3-0.2,0.6-0.4,0.9-0.6c0.3-0.2,0.6-0.4,0.9-0.5c0.3-0.2,0.6-0.3,0.9-0.5   c0.2-0.1,0.5-0.2,0.8-0.4c0.5-0.2,1-0.5,1.5-0.7c0.3-0.1,0.5-0.2,0.8-0.3c0.3-0.1,0.6-0.2,1-0.3c0.4-0.1,0.8-0.2,1.1-0.3   c0.4-0.1,0.7-0.2,1.1-0.3c0.4-0.1,0.8-0.2,1.3-0.2c0.1,0,0.3,0,0.4-0.1v48.7v0.2c-0.1,0-0.2,0-0.3,0c-0.5-0.1-1-0.2-1.5-0.3   c-0.2,0-0.5-0.1-0.7-0.2c-0.5-0.1-1-0.3-1.4-0.4c-0.3-0.1-0.6-0.2-0.8-0.3c-0.4-0.2-0.9-0.3-1.3-0.5c-0.3-0.1-0.6-0.2-0.8-0.4   c-0.3-0.2-0.7-0.3-1-0.5c-0.3-0.2-0.6-0.3-1-0.5c-0.3-0.2-0.7-0.4-1-0.6c-0.2-0.1-0.5-0.3-0.7-0.5c-0.4-0.3-0.8-0.6-1.2-0.9   c-0.1-0.1-0.3-0.2-0.4-0.3c-0.5-0.4-0.9-0.8-1.3-1.2C121.5,240,121.4,239.9,121.3,239.8z M326.1,453.7l-5.5,1.3   c-48.2,11-99.1,10.7-147.1-0.9c-18.3-4.4-31-20.6-31-39.4v-0.8c0-0.6,0-1.2,0.1-1.9c0,0,0,0,0,0c0.5-9.7,4.5-19,11-25.9   c0,0,0,0,0.1-0.1c0.4-0.5,0.9-0.9,1.4-1.4c0.1-0.1,0.2-0.2,0.3-0.3c0.4-0.4,0.8-0.8,1.3-1.2c0.1-0.1,0.3-0.2,0.4-0.3   c0.5-0.4,0.9-0.8,1.4-1.1c0.6-0.5,1.3-1,2-1.4l29.3-19.7l15.7,29.6c0.5,1,1.1,2,1.7,3c0,0,0,0,0,0c1.1,1.8,2.3,3.5,3.6,5.2   c0.1,0.1,0.1,0.1,0.2,0.2c0.6,0.7,1.2,1.4,1.8,2.1c0.1,0.1,0.1,0.2,0.2,0.2c0.6,0.7,1.3,1.4,1.9,2c0,0,0.1,0.1,0.1,0.1   c1.4,1.3,2.8,2.6,4.3,3.7c0.1,0.1,0.2,0.1,0.2,0.2c0.7,0.5,1.4,1.1,2.2,1.6c0.1,0.1,0.2,0.1,0.3,0.2c0.7,0.5,1.5,1,2.3,1.4   c0.1,0,0.1,0.1,0.2,0.1c0.8,0.5,1.6,0.9,2.4,1.4c0,0,0,0,0,0c0.8,0.4,1.6,0.8,2.5,1.2c0.1,0,0.2,0.1,0.3,0.1c0.8,0.4,1.6,0.7,2.4,1   c0.1,0.1,0.3,0.1,0.4,0.1c0.8,0.3,1.7,0.6,2.5,0.8c0.1,0,0.2,0.1,0.3,0.1c0.9,0.3,1.8,0.5,2.7,0.7c0,0,0,0,0,0   c0.9,0.2,1.8,0.4,2.7,0.6c0.1,0,0.3,0.1,0.4,0.1c0.9,0.2,1.7,0.3,2.6,0.4c0.2,0,0.3,0,0.5,0.1c0.9,0.1,1.8,0.2,2.7,0.2   c0.1,0,0.3,0,0.4,0c0.9,0.1,1.9,0.1,2.9,0.1c0,0,0,0,0,0c0,0,0,0,0,0c0,0,0,0,0,0c0.8,0,1.5,0,2.3-0.1c0.2,0,0.4,0,0.6,0   c0.6,0,1.3-0.1,1.9-0.1c0.1,0,0.3,0,0.4,0c0.7-0.1,1.5-0.2,2.2-0.3c0.2,0,0.4-0.1,0.5-0.1c0.6-0.1,1.2-0.2,1.8-0.3   c0.2,0,0.3-0.1,0.5-0.1c0.7-0.1,1.4-0.3,2.1-0.5c0.1,0,0.2-0.1,0.3-0.1c0.6-0.2,1.2-0.3,1.8-0.5c0.2,0,0.3-0.1,0.5-0.1   c1.4-0.4,2.8-0.9,4.2-1.5c0.1-0.1,0.3-0.1,0.4-0.2c0.6-0.3,1.2-0.5,1.9-0.8c0.1,0,0.1,0,0.2-0.1c0.7-0.3,1.3-0.6,2-1   c0.1-0.1,0.2-0.1,0.3-0.2c0.6-0.3,1.2-0.6,1.7-1c0.1-0.1,0.2-0.1,0.3-0.2c0.6-0.4,1.3-0.8,1.9-1.2c0,0,0.1-0.1,0.1-0.1   c0.6-0.4,1.2-0.8,1.7-1.2c0.1-0.1,0.2-0.1,0.3-0.2c1.2-0.9,2.4-1.8,3.5-2.8c0.1-0.1,0.2-0.2,0.3-0.2c0.6-0.5,1.2-1.1,1.8-1.7l0,0   c0,0,0,0,0.1-0.1c0,0,0,0,0,0c0.4-0.4,0.8-0.9,1.3-1.3c0.1-0.1,0.2-0.2,0.3-0.4c0.3-0.3,0.6-0.7,0.9-1c0.1-0.2,0.3-0.3,0.4-0.5   c0.3-0.3,0.5-0.6,0.8-0.9c0.1-0.2,0.3-0.4,0.4-0.5c0.2-0.3,0.5-0.6,0.7-0.9c0.1-0.2,0.3-0.4,0.4-0.6c0.2-0.3,0.4-0.6,0.7-0.9   c0.1-0.2,0.3-0.4,0.4-0.6c0.2-0.3,0.4-0.7,0.6-1c0.1-0.2,0.3-0.4,0.4-0.6c0.2-0.4,0.4-0.7,0.7-1.1c0.1-0.2,0.2-0.3,0.3-0.5   c0.3-0.5,0.6-1.1,0.9-1.7l15.3-29l29.3,19.3l0,0c0.7,0.4,1.3,0.9,2,1.4c0.4,0.3,0.9,0.7,1.3,1c0.2,0.1,0.3,0.3,0.5,0.4   c0.5,0.4,1,0.9,1.5,1.3c0,0,0,0,0,0c7.4,6.9,12.1,16.5,12.8,26.7c0,0,0,0.1,0,0.1c0,0.3,0,0.5,0,0.8c0,0.7,0.1,1.4,0.1,2.1   C357.6,433.2,344.6,449.5,326.1,453.7z M381.4,236.7C381.4,236.7,381.4,236.8,381.4,236.7c-0.4,0.6-0.9,1.1-1.3,1.6   c0,0-0.1,0.1-0.1,0.1c-0.4,0.5-0.9,0.9-1.3,1.4c-0.1,0.1-0.2,0.2-0.3,0.3c-0.4,0.4-0.9,0.8-1.3,1.2c-0.1,0.1-0.3,0.2-0.4,0.3   c-0.4,0.3-0.8,0.6-1.2,0.9c-0.2,0.2-0.5,0.3-0.7,0.5c-0.3,0.2-0.6,0.4-1,0.6c-0.3,0.2-0.6,0.4-1,0.5c-0.3,0.2-0.7,0.3-1,0.5   c-0.3,0.1-0.6,0.3-0.8,0.4c-0.4,0.2-0.9,0.3-1.3,0.5c-0.3,0.1-0.6,0.2-0.8,0.3c-0.5,0.1-1,0.3-1.4,0.4c-0.2,0.1-0.4,0.1-0.7,0.2   c-0.5,0.1-1,0.2-1.5,0.3c-0.1,0-0.2,0-0.3,0v-0.2v-48.7c0.1,0,0.3,0,0.4,0.1c0.4,0.1,0.8,0.1,1.3,0.2c0.4,0.1,0.7,0.2,1.1,0.3   c0.4,0.1,0.8,0.2,1.1,0.3c0.3,0.1,0.6,0.2,1,0.3c0.3,0.1,0.5,0.2,0.8,0.3c0.5,0.2,1,0.4,1.5,0.7c0.3,0.1,0.5,0.2,0.8,0.4   c0.3,0.2,0.6,0.3,0.9,0.5c0.3,0.2,0.6,0.4,0.9,0.5c0.3,0.2,0.6,0.4,0.9,0.6c0.4,0.3,0.7,0.5,1.1,0.8c0.2,0.1,0.4,0.3,0.5,0.4   c0.4,0.4,0.8,0.7,1.2,1.1c0.1,0,0.1,0.1,0.2,0.1c0.5,0.4,0.9,0.9,1.3,1.4c0.1,0.1,0.2,0.2,0.3,0.3c0.4,0.5,0.8,0.9,1.2,1.4   c0,0,0.1,0.1,0.1,0.1c3,4.1,4.8,9.1,4.8,14.6C386.2,227.6,384.4,232.6,381.4,236.7z"></path><path d="M223.8,283.7c0,0,0,0.1,0,0.1c0,0,0,0,0,0.1c-0.4,1-0.2,2.1,0.6,3c0.5,0.6,1.2,1.1,2,1.3c0.1,0,0.2,0.1,0.2,0.1   c0,0,0,0,0,0l0.1,0.1c0,0,0,0,0,0l0.5,0.4c0,0,0,0,0,0c0,0,0.1,0.1,0.1,0.1c0,0,0,0,0,0c0,0,0,0,0,0c0,0,0.1,0.1,0.1,0.1   c0,0,0,0,0,0c0.2,0.2,0.3,0.3,0.5,0.5l0.1,0.1c0.2,0.2,0.4,0.5,0.6,0.8c0,0,0,0,0,0.1c0.1,0.2,0.3,0.4,0.4,0.5   c0.1,0.2,0.2,0.3,0.4,0.5c0.2,0.2,0.3,0.5,0.5,0.7l0.1,0.2c0.1,0.2,0.2,0.3,0.4,0.5l0.2,0.2c0.1,0.2,0.3,0.3,0.4,0.5c0,0,0,0,0,0   l0.1,0.1c0.2,0.2,0.4,0.4,0.6,0.6l0,0c0.2,0.2,0.3,0.4,0.5,0.5l0.1,0.1c0.2,0.2,0.3,0.3,0.5,0.5l0.1,0.1c0.4,0.4,0.9,0.7,1.3,1.1   c0,0,0,0,0,0c0.2,0.2,0.4,0.3,0.6,0.5l0.1,0.1c0.2,0.1,0.4,0.3,0.7,0.4c0,0,0,0,0.1,0c0.5,0.3,1,0.6,1.6,0.9c0,0,0,0,0,0   c0.3,0.1,0.5,0.2,0.8,0.4c0,0,0,0,0,0c0.8,0.4,1.7,0.7,2.6,0.9c0,0,0,0,0,0c2.6,0.7,5.5,1.1,9.1,1.1c10,0,15.9-2.8,20.5-9.5   c1.5-2.2,2.5-3,3-3.3c0.5-0.1,0.9-0.3,1.3-0.6c1-0.6,1.7-1.6,1.7-2.7c0-1.1-0.5-2.1-1.5-2.8c-0.8-0.6-1.9-1-3.1-0.9c0,0,0,0-0.1,0   l-0.9,0c-1-0.3-2.4-1.5-3.6-2.5c-1.7-1.5-3.5-3.1-6-3.9c-3.2-1.1-7-0.8-11.4,0.7c-4.3-1.5-8.2-1.7-11.4-0.7   c-0.9,0.3-1.7,0.7-2.6,1.3c0,0,0,0,0,0c-0.5,0.3-0.9,0.6-1.4,1l-0.1,0.1c-0.2,0.2-0.4,0.3-0.6,0.5l-0.1,0.1   c-0.2,0.1-0.3,0.3-0.5,0.4l-0.7,0.6c-0.7,0.6-1.3,1.1-1.9,1.6h0l-0.7,0.5c0,0-0.1,0.1-0.1,0.1l-0.1,0c-0.1,0.1-0.2,0.1-0.4,0.2   c0,0,0,0,0,0c0,0-0.1,0-0.1,0.1c0,0,0,0,0,0c0,0,0,0,0,0c0,0-0.1,0-0.1,0l-0.1,0l-0.7,0l0,0c-0.6,0-1.3,0.1-1.9,0.3   C225.1,282,224.2,282.8,223.8,283.7z M226,288.1c-0.1,0-0.2-0.1-0.2-0.1C225.9,288,226,288.1,226,288.1L226,288.1z"></path></g></svg>