<svg height='100px' width='100px'  fill="#333333" xmlns="http://www.w3.org/2000/svg" xmlns:xlink="http://www.w3.org/1999/xlink" version="1.1" x="0px" y="0px" viewBox="0 0 500 500" style="enable-background:new 0 0 500 500;" xml:space="preserve"><g><path d="M275,289.9c-0.8-0.6-1.9-1-3.1-0.9c0,0,0,0-0.1,0l-0.9,0c-1-0.3-2.4-1.5-3.6-2.5c-1.7-1.5-3.5-3.1-6-3.9   c-3.2-1.1-7-0.8-11.4,0.7c-4.3-1.5-8.2-1.7-11.4-0.7c-0.9,0.3-1.7,0.7-2.6,1.3c0,0,0,0,0,0c-0.5,0.3-0.9,0.6-1.4,1l-0.1,0.1   c-0.2,0.2-0.4,0.3-0.6,0.5l-0.1,0.1c-0.2,0.1-0.3,0.3-0.5,0.4l-0.7,0.6c-0.7,0.6-1.3,1.1-1.9,1.6l-0.7,0.5c0,0-0.1,0.1-0.1,0.1   l-0.1,0c-0.1,0.1-0.2,0.1-0.4,0.2c0,0,0,0,0,0c0,0-0.1,0-0.1,0.1c0,0,0,0,0,0c0,0,0,0,0,0c0,0-0.1,0-0.1,0l-0.1,0l-0.7,0v0   c-0.6,0-1.3,0.1-1.9,0.3c-1.2,0.4-2.1,1.2-2.5,2.1c0,0,0,0.1,0,0.1c0,0,0,0,0,0.1c-0.4,1-0.2,2.1,0.6,3c0.5,0.6,1.2,1.1,2,1.3   c0.1,0,0.2,0.1,0.2,0.1c0,0,0,0,0,0l0.1,0.1c0,0,0,0,0,0l0.5,0.4c0,0,0,0,0,0c0,0,0.1,0.1,0.1,0.1c0,0,0,0,0,0c0,0,0,0,0,0   c0,0,0.1,0.1,0.1,0.1c0,0,0,0,0,0c0.2,0.2,0.3,0.3,0.5,0.5l0.1,0.1c0.2,0.2,0.4,0.5,0.6,0.8c0,0,0,0,0,0.1c0.1,0.2,0.3,0.4,0.4,0.5   c0.1,0.2,0.2,0.3,0.4,0.5c0.2,0.2,0.3,0.5,0.5,0.7l0.1,0.2c0.1,0.2,0.2,0.3,0.4,0.5l0.2,0.2c0.1,0.2,0.3,0.3,0.4,0.5c0,0,0,0,0,0   l0.1,0.1c0.2,0.2,0.4,0.4,0.6,0.6l0,0c0.2,0.2,0.3,0.4,0.5,0.5l0.1,0.1c0.2,0.2,0.3,0.3,0.5,0.5l0.1,0.1c0.4,0.4,0.9,0.7,1.3,1.1   c0,0,0,0,0,0c0.2,0.2,0.4,0.3,0.6,0.5l0.1,0.1c0.2,0.1,0.4,0.3,0.7,0.4c0,0,0,0,0.1,0c0.5,0.3,1,0.6,1.6,0.9c0,0,0,0,0,0   c0.3,0.1,0.5,0.2,0.8,0.4c0,0,0,0,0,0c0.8,0.4,1.7,0.7,2.6,0.9c0,0,0,0,0,0c2.6,0.7,5.5,1.1,9.1,1.1c10,0,15.9-2.8,20.5-9.5   c1.5-2.2,2.5-3,3-3.3c0.5-0.1,0.9-0.3,1.3-0.6c1-0.6,1.7-1.6,1.7-2.7C276.5,291.6,276,290.6,275,289.9z M226,295.8   c-0.1,0-0.2-0.1-0.2-0.1C225.9,295.7,226,295.7,226,295.8L226,295.8z"></path><path d="M250,274.4c5.8,0,11.2-2.3,15.3-6.3c2.9-2.9,2.9-7.7,0-10.6c-2.9-2.9-7.7-2.9-10.6,0c-1.3,1.3-2.9,1.9-4.7,1.9   s-3.4-0.7-4.7-1.9c-2.9-2.9-7.7-2.9-10.6,0c-2.9,2.9-2.9,7.7,0,10.6C238.8,272.1,244.2,274.4,250,274.4z"></path><circle cx="208.7" cy="223.7" r="11.9"></circle><circle cx="291.8" cy="223.7" r="11.9"></circle><path d="M406.2,237.2c0-17.9-10.5-33.3-25.7-40.5l-7.5-22.8c-2.4-7.3-2.5-15.2-2.7-23.7c-0.1-5.1-0.2-10.4-0.8-15.9   c-3.3-30.9-16.4-56.7-37.7-74.7c-6.7-5.7-14.1-10.5-22.2-14.4c-17.7-11.5-38-17.7-59-17.7c0,0,0,0,0,0c-64.8,0-113,43.3-120,107.7   c-0.6,5.5-0.7,10.8-0.8,15.9c-0.2,8.6-0.3,16.7-2.8,24.1l-7.1,21.4c-15.3,7.1-25.9,22.6-25.9,40.6c0,10,3.3,19.2,8.8,26.6   c-0.5,23.1,5.3,56,15.1,85.2c4.4,13.1,9,23.9,13.8,32.9c-5.9,9.4-9.1,20.5-9.1,31.9v0.8c0,28.1,19.1,52.3,46.3,58.9   c26.2,6.3,53.2,9.5,80.2,9.5c25.6,0,51.2-2.9,76.1-8.6l5.5-1.3c27.7-6.3,47-30.6,47-59c0-11.7-3.3-22.8-9.4-32.4   c4.6-8.9,9.2-19.5,13.6-32.3c10.1-29.5,16-62.6,15.6-85.8C402.9,256.2,406.2,247.1,406.2,237.2z M135.1,239.4v22.2   c-1.4-0.2-2.8-0.5-4.1-1c0,0,0,0-0.1,0c-0.6-0.2-1.1-0.4-1.6-0.6c-0.1-0.1-0.3-0.1-0.4-0.2c-0.4-0.2-0.9-0.4-1.3-0.6   c-0.2-0.1-0.5-0.2-0.7-0.3c-0.3-0.2-0.6-0.4-1-0.6c-0.3-0.2-0.6-0.4-0.9-0.6c-0.2-0.2-0.5-0.3-0.7-0.5c-0.4-0.3-0.8-0.5-1.1-0.8   c-0.2-0.1-0.3-0.3-0.4-0.4c-0.4-0.3-0.8-0.7-1.2-1.1c-0.1-0.1-0.2-0.2-0.3-0.3c-4.5-4.5-7.4-10.7-7.4-17.6c0-11.6,8.1-21.4,19-24   c0.2,0,0.4-0.1,0.6-0.1c0.5-0.1,1-0.2,1.5-0.3c0.1,0,0.1,0,0.2,0V239.4z M301.2,63.3c1.6-2.2,4.7-2.8,7-1.1   c0.7,0.5,17,12.4,29.2,34.1c1.3,2.4,0.5,5.5-1.9,6.8c-0.8,0.4-1.6,0.6-2.4,0.6c-1.8,0-3.5-0.9-4.4-2.6   c-11-19.8-26.1-30.8-26.3-30.9C300.1,68.7,299.6,65.5,301.2,63.3z M277,380.7c-5.4,10.2-15.5,16.3-27.1,16.3c0,0,0,0,0,0   c-11.5,0-21.7-6.1-27.1-16.3l-19.1-36.2c14.2,6.2,29.8,9.7,46.2,9.7c15,0,29.2-2.9,42.4-8.1c0.2,1.4,0.4,2.9,0.6,4.4L277,380.7z    M344,252.2c0,0.1,0,0.2,0,0.3c-0.1,1-0.3,1.9-0.4,2.9c0,0.1,0,0.1,0,0.2c-0.4,2-0.8,4.1-1.2,6.1c0,0.1-0.1,0.2-0.1,0.3   c-0.2,0.9-0.5,1.8-0.7,2.7c0,0.1-0.1,0.2-0.1,0.3c-0.3,1-0.6,1.9-0.8,2.9c0,0.1-0.1,0.3-0.1,0.4c-0.2,0.7-0.5,1.5-0.7,2.2   c-0.1,0.4-0.2,0.7-0.4,1.1c-0.2,0.5-0.4,1-0.5,1.4c-0.7,1.9-1.5,3.7-2.3,5.5c0,0,0,0,0,0c-14.9,32.9-48.1,55.9-86.5,55.9   c-44.2,0-81.4-30.3-91.9-71.2c0,0,0,0,0,0c-0.2-0.7-0.3-1.4-0.5-2c-0.1-0.2-0.1-0.5-0.2-0.7c-0.1-0.7-0.3-1.3-0.4-2   c-0.2-0.7-0.3-1.5-0.4-2.3c-0.1-0.4-0.1-0.8-0.2-1.2c-0.1-0.6-0.2-1.2-0.3-1.8c-0.1-0.4-0.1-0.7-0.1-1.1c-0.1-0.8-0.2-1.6-0.3-2.4   c0-0.2,0-0.3-0.1-0.5c0-0.1,0-0.2,0-0.2c9.2,11.2,23,18.5,38.4,19.1c0.7,0,1.3,0,2,0c13.6,0,26.5-5.2,36.3-14.7   c9.9-9.6,15.6-22.3,16-36c0.1-0.1,0.3-0.2,0.4-0.4c0.7-0.7,1.8-0.7,2.5,0c0.1,0.1,0.3,0.2,0.4,0.3c0,0.2,0,0.4,0,0.5   c1.1,27.1,23.3,49.1,50.4,50.1c0.7,0,1.3,0,2,0c13.6,0,26.5-5.2,36.3-14.7c1.4-1.4,2.8-2.8,4-4.4   C344.3,250.1,344.2,251.2,344,252.2z M158.6,215.6C158.6,215.6,158.6,215.6,158.6,215.6c0-6.6,5.5-12,12.3-12h50.3   c6.7,0,12.2,5.4,12.3,11.9v0.2c0,10.3-4.1,19.8-11.5,26.9c-7.4,7.1-17.1,10.8-27.4,10.4c-19.3-0.7-35.1-16.4-35.9-35.8   C158.6,216.7,158.6,216.2,158.6,215.6z M266.6,215.6L266.6,215.6c0-6.6,5.5-12,12.3-12h50.3c6.7,0,12.2,5.4,12.3,11.9v0.2   c0,10.3-4.1,19.8-11.5,26.9c-7.4,7.1-17.1,10.8-27.4,10.4c-19.3-0.7-35.1-16.4-35.9-35.8C266.6,216.7,266.6,216.2,266.6,215.6z    M344.9,193.5c-4.5-3.1-9.9-5-15.7-5h-50.3c-10.2,0-19.1,5.6-23.7,13.8c-3.3-1.1-6.9-1.1-10.3,0c-4.7-8.2-13.6-13.8-23.8-13.8   h-50.3c-5.9,0-11.3,1.9-15.7,5v-8.9h70.4c9.6,0,17.9-6.5,20.2-15.8c1.2-4.8,2.8-9.6,4.5-14c1.6,4.4,3.1,9.3,4.3,14   c2.3,9.3,10.6,15.8,20.2,15.8h70.2V193.5z M344.9,136.7c-0.2,0-0.5,0-0.7,0c-2.5,0-4.6-1.8-4.9-4.3c-0.7-4.7-1.7-9.4-3.2-14   c-0.8-2.6,0.6-5.4,3.3-6.3c2.6-0.8,5.4,0.6,6.3,3.3c1.6,5.1,2.8,10.4,3.5,15.7C349.6,133.8,347.6,136.3,344.9,136.7z M378.8,254.7   c-0.1,0.1-0.2,0.2-0.4,0.4c-0.4,0.4-0.8,0.7-1.2,1c-0.2,0.1-0.3,0.3-0.5,0.4c-0.3,0.3-0.7,0.5-1.1,0.8c-0.2,0.2-0.5,0.4-0.7,0.5   c-0.3,0.2-0.6,0.4-0.9,0.5c-0.3,0.2-0.7,0.4-1,0.6c-0.2,0.1-0.4,0.2-0.7,0.3c-0.4,0.2-0.9,0.4-1.3,0.6c-0.1,0.1-0.3,0.1-0.4,0.1   c-0.6,0.2-1.1,0.4-1.7,0.6c0,0,0,0,0,0c-1.4,0.4-2.8,0.8-4.2,1v-22.2v-26.7c0.1,0,0.2,0,0.3,0c0.4,0.1,0.8,0.1,1.2,0.2   c0.3,0.1,0.6,0.1,0.9,0.2c0.5,0.1,0.9,0.3,1.4,0.4c0.2,0.1,0.4,0.1,0.6,0.2c0,0,0,0,0,0c9.8,3.3,16.9,12.6,16.9,23.4   C386.2,244,383.4,250.2,378.8,254.7z"></path></g></svg>