<svg height='100px' width='100px'  fill="#333333" xmlns="http://www.w3.org/2000/svg" xmlns:xlink="http://www.w3.org/1999/xlink" version="1.1" x="0px" y="0px" viewBox="0 0 500 500" style="enable-background:new 0 0 500 500;" xml:space="preserve"><g><path d="M363.3,373c7.9-18.7,11.1-39.4,9-60l-4.4-43.5c-1.9-19-2.9-38.2-2.9-57.3v-50.1c0-63-51.3-114.3-114.3-114.3   c-63.7,0-115.5,51.8-115.5,115.5v50c0,19.2-1,38.5-2.9,57.6l-4.3,42.1c-2.1,20.5,1.1,41.1,8.8,59.8c-9.1,10.8-14.3,24.6-14.3,39.1   v0.8c0,28.1,19.1,52.3,46.3,58.9c26.2,6.3,53.2,9.5,80.2,9.5c25.6,0,51.2-2.9,76.1-8.6l5.5-1.3c27.7-6.3,47-30.6,47-59   C377.6,397.6,372.4,383.8,363.3,373z M302,297.2c0.7,0,1.3,0,2,0c13.6,0,26.5-5.2,36.3-14.7c0.1-0.1,0.1-0.1,0.2-0.2   c-5.9,18.8-17.8,35.7-33.6,47.6c-2.6,2-5.3,3.8-8.1,5.4c-10.9,6.6-23,10.9-35.6,12.6c-0.1,0-0.3,0-0.4,0.1   c-0.9,0.1-1.7,0.2-2.6,0.3c-0.4,0-0.8,0.1-1.2,0.1c-0.7,0.1-1.4,0.1-2.1,0.2c-0.6,0-1.2,0.1-1.9,0.1c-0.5,0-1,0.1-1.6,0.1   c-1.2,0-2.4,0.1-3.6,0.1c-1.3,0-2.5,0-3.8-0.1c-0.3,0-0.6,0-1-0.1c-1,0-2-0.1-3-0.2c-0.3,0-0.6,0-0.9-0.1c-1.1-0.1-2.3-0.2-3.4-0.4   c-0.1,0-0.2,0-0.3,0c-17.3-2.3-33.9-9.3-47.5-20.3c-14.6-11.8-25.4-27.8-30.9-45.6c9,8.8,21.2,14.5,34.6,15c0.7,0,1.3,0,2,0   c13.6,0,26.5-5.2,36.3-14.7c9.9-9.6,15.6-22.3,16-36c0.1-0.1,0.3-0.2,0.4-0.4c0.7-0.7,1.8-0.7,2.5,0c0.1,0.1,0.3,0.2,0.4,0.3   c0,0.2,0,0.4,0,0.5C252.8,274.2,274.9,296.2,302,297.2z M269.6,244.8l16-14.5c2-1.9,5.2-1.7,7.1,0.3c1.9,2,1.7,5.2-0.3,7.1   l-16,14.5c-1,0.9-2.2,1.3-3.4,1.3c-1.4,0-2.7-0.6-3.7-1.6C267.4,249.8,267.6,246.6,269.6,244.8z M187.4,237.7l-16,14.5   c-1,0.9-2.2,1.3-3.4,1.3c-1.4,0-2.7-0.6-3.7-1.6c-1.9-2-1.7-5.2,0.3-7.1l16-14.5c2-1.9,5.2-1.7,7.1,0.3   C189.6,232.7,189.4,235.8,187.4,237.7z M248.8,148.9C248.8,148.9,248.9,148.9,248.8,148.9c3.6,0,6.9,1.6,9.2,4.3l53.7,64.6h-32.8   c-10.2,0-19.1,5.6-23.7,13.8c-3.3-1.1-6.9-1.1-10.3,0c-4.7-8.2-13.6-13.8-23.8-13.8h-33.7l52.3-64.5   C241.9,150.5,245.3,148.9,248.8,148.9z M177,96.8c17.3-17.8,36.2-25.1,37-25.4c2.6-1,5.5,0.3,6.4,2.9c1,2.6-0.3,5.5-2.9,6.4   c-0.2,0.1-17.7,6.9-33.4,23c-1,1-2.3,1.5-3.6,1.5c-1.3,0-2.5-0.5-3.5-1.4C175.1,101.9,175,98.8,177,96.8z M156.5,127.3   c2.1-4.9,4.6-9.7,7.5-14.2c1.5-2.3,4.6-3,6.9-1.5c2.3,1.5,3,4.6,1.5,6.9c-2.6,4.1-4.8,8.3-6.7,12.7c-0.8,1.9-2.7,3.1-4.6,3.1   c-0.6,0-1.3-0.1-1.9-0.4C156.6,132.8,155.4,129.9,156.5,127.3z M326.1,451.7l-5.5,1.3c-48.2,11-99.1,10.7-147.1-0.9   c-18.3-4.4-31-20.6-31-39.4v-0.8c0-6.8,1.7-13.4,4.8-19.2c3.5,5.3,7.4,10.4,11.7,15.1c23.2,25.7,56.5,40.5,91.2,40.5   c34.7,0,67.9-14.8,91.1-40.5c4.3-4.7,8.1-9.7,11.5-15c3.2,5.8,4.9,12.4,4.9,19.3C357.6,431.2,344.6,447.5,326.1,451.7z"></path><path d="M249.9,300.1c-4.3-1.5-8.2-1.7-11.4-0.7c-0.9,0.3-1.7,0.7-2.6,1.3c0,0,0,0,0,0c-0.5,0.3-0.9,0.6-1.4,1l-0.1,0.1   c-0.2,0.2-0.4,0.3-0.6,0.5l-0.1,0.1c-0.2,0.1-0.3,0.3-0.5,0.4l-0.7,0.6c-0.7,0.6-1.3,1.1-1.9,1.6h0l-0.7,0.5c0,0-0.1,0.1-0.1,0.1   l-0.1,0c-0.1,0.1-0.2,0.1-0.4,0.2c0,0,0,0,0,0c0,0-0.1,0-0.1,0.1c0,0,0,0,0,0c0,0,0,0,0,0c0,0-0.1,0-0.1,0l-0.1,0l-0.7,0l0,0   c-0.6,0-1.3,0.1-1.9,0.3c-1.2,0.4-2.1,1.2-2.5,2.1c0,0,0,0.1,0,0.1c0,0,0,0,0,0.1c-0.4,1-0.2,2.1,0.6,3c0.5,0.6,1.2,1.1,2,1.3   c0.1,0,0.2,0.1,0.2,0.1c0,0,0,0,0,0l0.1,0.1c0,0,0,0,0,0l0.5,0.4c0,0,0,0,0,0c0,0,0.1,0.1,0.1,0.1c0,0,0,0,0,0c0,0,0,0,0,0   c0,0,0.1,0.1,0.1,0.1c0,0,0,0,0,0c0.2,0.2,0.3,0.3,0.5,0.5l0.1,0.1c0.2,0.2,0.4,0.5,0.6,0.8c0,0,0,0,0,0.1c0.1,0.2,0.3,0.4,0.4,0.5   c0.1,0.2,0.2,0.3,0.4,0.5c0.2,0.2,0.3,0.5,0.5,0.7l0.1,0.2c0.1,0.2,0.2,0.3,0.4,0.5l0.2,0.2c0.1,0.2,0.3,0.3,0.4,0.5c0,0,0,0,0,0   l0.1,0.1c0.2,0.2,0.4,0.4,0.6,0.6l0,0c0.2,0.2,0.3,0.4,0.5,0.5l0.1,0.1c0.2,0.2,0.3,0.3,0.5,0.5l0.1,0.1c0.4,0.4,0.9,0.7,1.3,1.1   c0,0,0,0,0,0c0.2,0.2,0.4,0.3,0.6,0.5l0.1,0.1c0.2,0.1,0.4,0.3,0.7,0.4c0,0,0,0,0.1,0c0.5,0.3,1,0.6,1.6,0.9c0,0,0,0,0,0   c0.3,0.1,0.5,0.2,0.8,0.4c0,0,0,0,0,0c0.8,0.4,1.7,0.7,2.6,0.9c0,0,0,0,0,0c2.6,0.7,5.5,1.1,9.1,1.1c10,0,15.9-2.8,20.5-9.5   c1.5-2.2,2.5-3,3-3.3c0.5-0.1,0.9-0.3,1.3-0.6c1-0.6,1.7-1.6,1.7-2.7c0-1.1-0.5-2.1-1.5-2.8c-0.8-0.6-1.9-1-3.1-0.9c0,0,0,0-0.1,0   l-0.9,0c-1-0.3-2.4-1.5-3.6-2.5c-1.7-1.5-3.5-3.1-6-3.9C258.1,298.4,254.2,298.7,249.9,300.1z M226,312.8c-0.1,0-0.2-0.1-0.2-0.1   C225.9,312.7,226,312.7,226,312.8L226,312.8z"></path></g></svg>