<svg height='100px' width='100px'  fill="#FF6868" xmlns:x="http://ns.adobe.com/Extensibility/1.0/" xmlns:i="http://ns.adobe.com/AdobeIllustrator/10.0/" xmlns:graph="http://ns.adobe.com/Graphs/1.0/" xmlns="http://www.w3.org/2000/svg" xmlns:xlink="http://www.w3.org/1999/xlink" version="1.1" x="0px" y="0px" viewBox="0 0 100 100" enable-background="new 0 0 100 100" xml:space="preserve"><g><g i:extraneous="self"><path d="M50.3,5C25.5,4.8,5.2,24.9,5,50c0,24.7,20.1,44.8,44.7,45c12,0.1,23.4-4.5,31.9-13c8.6-8.4,13.3-19.7,13.4-31.7    c0,0,0-0.3,0-0.3C95,25.3,74.9,5.2,50.3,5z M74.6,71c-1.1,1.1-3,1.1-4.1,0L50,50.7L29.5,71c-0.6,0.6-1.3,0.8-2,0.8    c-0.7,0-1.5-0.3-2.1-0.9c-1.1-1.1-1.1-3,0-4.1L48,44.5c1.1-1.1,3-1.1,4.1,0l22.6,22.4C75.7,68,75.8,69.9,74.6,71z M74.6,48.6    c-0.6,0.6-1.3,0.9-2.1,0.9c-0.7,0-1.5-0.3-2-0.8L50,28.3L29.5,48.7c-1.1,1.1-3,1.1-4.1,0c-1.1-1.1-1.1-3,0-4.1L48,22.2    c1.1-1.1,3-1.1,4.1,0l22.6,22.4C75.7,45.7,75.8,47.5,74.6,48.6z"></path></g></g></svg>