<svg height='100px' width='100px'  fill="#000000" xmlns="http://www.w3.org/2000/svg" xmlns:xlink="http://www.w3.org/1999/xlink" version="1.1" x="0px" y="0px" viewBox="0 0 512 512" style="enable-background:new 0 0 512 512;" xml:space="preserve"><g><g><g><g><g><path d="M172.3,451.519c-22.977,0.001-43.823-8.753-58.712-24.654c-17.281-18.456-26.208-45.107-26.532-79.214       c-0.031-3.248,2.177-6.091,5.332-6.865c3.159-0.77,6.428,0.727,7.904,3.619c19.004,37.271,29.368,42.874,33.854,42.897       c0.008,0,0.017,0,0.025,0c7.373,0.001,15.86-16.235,23.35-30.563c11.032-21.104,23.536-45.023,44.845-50.37c0,0,0,0,0.001,0       c13.036-3.268,26.541-0.094,38.029,8.938c15.103,11.873,24.768,32.229,24.622,51.861       c-0.169,23.434-10.705,45.161-29.666,61.178c-17.402,14.701-40.347,23.147-62.949,23.173       C172.37,451.519,172.333,451.519,172.3,451.519z M104.778,379.782c10.212,41.955,39.712,57.736,67.525,57.736       c0.029,0,0.055,0,0.084,0c37.728-0.043,78.327-28.363,78.631-70.453c0.113-15.224-7.633-31.601-19.274-40.753       c-5.666-4.454-14.769-9.173-25.972-6.363c-15.218,3.817-26.176,24.78-35.845,43.276c-10.235,19.579-19.905,38.076-35.75,38.076       c-0.035,0-0.068,0-0.104-0.001C124.523,401.253,115.222,394.586,104.778,379.782z"></path></g><g><path d="M343.769,451.519c-0.032,0-0.063,0-0.095,0c-22.604-0.023-45.552-8.469-62.959-23.17       c-18.965-16.017-29.505-37.744-29.679-61.181c-0.135-19.641,9.539-39.999,24.646-51.869       c11.488-9.025,24.991-12.197,38.021-8.93c0,0,0,0.001,0.001,0.001c21.302,5.346,33.805,29.262,44.835,50.362       c7.491,14.33,15.98,30.568,23.356,30.569c0.009,0,0.017,0,0.025,0c4.487-0.023,14.854-5.627,33.857-42.897       c1.476-2.894,4.748-4.392,7.903-3.619c3.155,0.774,5.363,3.617,5.333,6.865c-0.325,34.104-9.25,60.754-26.529,79.21       C387.597,442.764,366.747,451.519,343.769,451.519z M303.554,319.103c-8.114,0-14.742,3.686-19.222,7.205       c-11.646,9.15-19.401,25.531-19.296,40.761c0.312,42.091,40.92,70.411,78.652,70.45c0.025,0,0.053,0,0.077,0       c27.813,0,57.313-15.778,67.526-57.738c-10.443,14.805-19.747,21.473-29.3,21.521c-0.034,0.001-0.069,0.001-0.104,0.001       c-15.849,0.001-25.519-18.499-35.757-38.083c-9.667-18.493-20.624-39.452-35.836-43.271       C307.954,319.361,305.7,319.103,303.554,319.103z"></path></g></g></g><g><path d="M368.342,245.635c-51.057,0-92.594-41.53-92.594-92.578c0-51.047,41.537-92.576,92.594-92.576     c51.038,0,92.561,41.529,92.561,92.576C460.902,204.104,419.38,245.635,368.342,245.635z M368.342,74.481     c-43.337,0-78.594,35.249-78.594,78.576c0,43.328,35.257,78.578,78.594,78.578c43.318,0,78.561-35.25,78.561-78.578     C446.902,109.73,411.66,74.481,368.342,74.481z"></path></g><g><path d="M143.691,245.635c-51.055,0-92.592-41.53-92.592-92.578c0.002-51.047,41.539-92.576,92.592-92.576     c51.039,0,92.561,41.529,92.561,92.576C236.252,204.104,194.729,245.635,143.691,245.635z M143.691,74.481     c-43.334,0-78.59,35.249-78.592,78.577c0,43.327,35.256,78.577,78.592,78.577c43.319,0,78.561-35.25,78.561-78.578     C222.252,109.73,187.01,74.481,143.691,74.481z"></path></g><g><path d="M98.099,160.058L98.099,160.058c-3.866,0-7-3.134-7-7c0.001-28.991,23.591-52.577,52.585-52.577c3.866,0,7,3.134,7,7     s-3.134,7-7,7c-21.275,0-38.584,17.306-38.585,38.578C105.099,156.924,101.965,160.058,98.099,160.058z"></path></g><g><path d="M322.016,160.058L322.016,160.058c-3.866,0-7-3.134-7-7c0.001-28.991,23.591-52.577,52.585-52.577c3.866,0,7,3.134,7,7     s-3.134,7-7,7c-21.275,0-38.584,17.306-38.585,38.578C329.016,156.924,325.881,160.058,322.016,160.058z"></path></g><g><path d="M458.83,179.413h-7.111c-2.133,0-4.15-0.973-5.479-2.642s-1.822-3.854-1.342-5.932c1.33-5.765,2.005-11.748,2.005-17.782     c-0.001-6.035-0.676-12.017-2.005-17.78c-0.48-2.079,0.015-4.262,1.343-5.932c1.327-1.669,3.345-2.642,5.478-2.642h7.111     c14.523,0,26.34,11.822,26.34,26.354C485.17,167.59,473.354,179.413,458.83,179.413z M460.1,140.768     c0.533,4.053,0.803,8.162,0.804,12.288c0,4.127-0.27,8.237-0.804,12.292c6.21-0.638,11.07-5.907,11.07-12.291     C471.17,146.674,466.31,141.406,460.1,140.768z"></path></g><g><path d="M60.313,179.413h-7.112c-14.541,0-26.371-11.823-26.371-26.356c0-14.532,11.83-26.354,26.371-26.354h7.112     c2.133,0,4.15,0.973,5.478,2.642c1.328,1.669,1.822,3.854,1.343,5.932c-1.349,5.841-2.033,11.824-2.035,17.782     c0,5.95,0.685,11.932,2.035,17.779c0.479,2.079-0.015,4.263-1.342,5.932C64.463,178.44,62.446,179.413,60.313,179.413z      M51.921,140.769c-6.222,0.642-11.091,5.908-11.091,12.289s4.868,11.648,11.09,12.29c-0.546-4.082-0.821-8.191-0.821-12.29     C51.1,148.956,51.376,144.848,51.921,140.769z"></path></g><g><path d="M277.141,149.105h-45.125c-3.866,0-7-3.134-7-7s3.134-7,7-7h45.125c3.866,0,7,3.134,7,7S281.007,149.105,277.141,149.105     z"></path></g><g><path d="M277.141,179.105h-45.125c-3.866,0-7-3.134-7-7s3.134-7,7-7h45.125c3.866,0,7,3.134,7,7S281.007,179.105,277.141,179.105     z"></path></g></g></g></svg>