<svg height='100px' width='100px'  fill="#000000" xmlns="http://www.w3.org/2000/svg" xmlns:xlink="http://www.w3.org/1999/xlink" viewBox="0 0 22 22" version="1.1" x="0px" y="0px"><title>cat_2</title><desc>Created with Sketch.</desc><g stroke="none" stroke-width="1" fill="none" fill-rule="evenodd"><g transform="translate(-37.000000, -10.000000)" fill-rule="nonzero" fill="#000000"><path d="M38,11.999615 L38,18.000385 C38,18.5569727 38.4442281,19 38.999615,19 L45.000385,19 C45.5569727,19 46,18.5557719 46,18.000385 L46,11.999615 C46,11.4430273 45.5557719,11 45.000385,11 L38.999615,11 C38.4430273,11 38,11.4442281 38,11.999615 Z M37,11.999615 C37,10.8952581 37.8874333,10 38.999615,10 L45.000385,10 C46.1047419,10 47,10.8874333 47,11.999615 L47,18.000385 C47,19.1047419 46.1125667,20 45.000385,20 L38.999615,20 C37.8952581,20 37,19.1125667 37,18.000385 L37,11.999615 Z M38,23.999615 L38,30.000385 C38,30.5569727 38.4442281,31 38.999615,31 L45.000385,31 C45.5569727,31 46,30.5557719 46,30.000385 L46,23.999615 C46,23.4430273 45.5557719,23 45.000385,23 L38.999615,23 C38.4430273,23 38,23.4442281 38,23.999615 Z M37,23.999615 C37,22.8952581 37.8874333,22 38.999615,22 L45.000385,22 C46.1047419,22 47,22.8874333 47,23.999615 L47,30.000385 C47,31.1047419 46.1125667,32 45.000385,32 L38.999615,32 C37.8952581,32 37,31.1125667 37,30.000385 L37,23.999615 Z M50,23.999615 L50,30.000385 C50,30.5569727 50.4442281,31 50.999615,31 L57.000385,31 C57.5569727,31 58,30.5557719 58,30.000385 L58,23.999615 C58,23.4430273 57.5557719,23 57.000385,23 L50.999615,23 C50.4430273,23 50,23.4442281 50,23.999615 Z M49,23.999615 C49,22.8952581 49.8874333,22 50.999615,22 L57.000385,22 C58.1047419,22 59,22.8874333 59,23.999615 L59,30.000385 C59,31.1047419 58.1125667,32 57.000385,32 L50.999615,32 C49.8952581,32 49,31.1125667 49,30.000385 L49,23.999615 Z M50,11.999615 L50,18.000385 C50,18.5569727 50.4442281,19 50.999615,19 L57.000385,19 C57.5569727,19 58,18.5557719 58,18.000385 L58,11.999615 C58,11.4430273 57.5557719,11 57.000385,11 L50.999615,11 C50.4430273,11 50,11.4442281 50,11.999615 Z M49,11.999615 C49,10.8952581 49.8874333,10 50.999615,10 L57.000385,10 C58.1047419,10 59,10.8874333 59,11.999615 L59,18.000385 C59,19.1047419 58.1125667,20 57.000385,20 L50.999615,20 C49.8952581,20 49,19.1125667 49,18.000385 L49,11.999615 Z"></path></g></g></svg>